<?xml version="1.0" encoding="UTF-8"?>
<!DOCTYPE svg PUBLIC "-//W3C//DTD SVG 1.1//EN" "http://www.w3.org/Graphics/SVG/1.1/DTD/svg11.dtd">
<!-- Creator: CorelDRAW X7 -->
<svg xmlns="http://www.w3.org/2000/svg" xml:space="preserve" width="247px" height="247px" version="1.1" style="shape-rendering:geometricPrecision; text-rendering:geometricPrecision; image-rendering:optimizeQuality; fill-rule:evenodd; clip-rule:evenodd"
viewBox="0 0 587 587"
 xmlns:xlink="http://www.w3.org/1999/xlink">
 <defs>
  <style type="text/css">
   <![CDATA[
    .fil1 {fill:#00A0E3}
    .fil0 {fill:#00A0E3}
   ]]>
  </style>
   <mask id="id0">
  <radialGradient id="id1" gradientUnits="userSpaceOnUse" cx="-0" cy="0" r="0" fx="-0" fy="0">
   <stop offset="0" style="stop-opacity:0.231373; stop-color:white"/>
   <stop offset="1" style="stop-opacity:0; stop-color:white"/>
  </radialGradient>
    <rect style="fill:url(#id1)" x="-3" y="-3" width="592" height="592"/>
   </mask>
 </defs>
 <g id="Layer_x0020_1">
  <metadata id="CorelCorpID_0Corel-Layer"/>
  <path class="fil0" d="M302 410c-14,-31 -20,-74 -21,-115 0,-32 6,-95 22,-118 72,-1 171,52 172,115 1,69 -101,114 -173,118zm-217 -148l-1 30c16,-2 128,-7 137,-13l2 -30 -138 13zm2 58l-2 36 139 -13 -2 -30c-38,5 -106,10 -135,7zm-2 -122l-1 32 144 -14 8 -32 -151 14zm0 189l-2 29c17,-1 138,-9 152,-16l-7 -27c-26,2 -111,3 -143,14zm419 -115c-6,-14 -7,-21 -15,-34 -9,-15 -17,-19 -20,-28 -12,-5 -24,-17 -38,-25 -32,-19 -117,-52 -146,-32 -42,28 -51,278 15,287 25,3 79,-14 100,-23 65,-28 109,-67 104,-145z"/>
  <path class="fil1" style="mask:url(#id0)" d="M293 0c162,0 294,131 294,293 0,162 -132,294 -294,294 -162,0 -293,-132 -293,-294 0,-162 131,-293 293,-293z"/>
 </g>
</svg>
