<?xml version="1.0" encoding="UTF-8"?>
<!DOCTYPE svg PUBLIC "-//W3C//DTD SVG 1.1//EN" "http://www.w3.org/Graphics/SVG/1.1/DTD/svg11.dtd">
<!-- Creator: CorelDRAW X7 -->
<svg xmlns="http://www.w3.org/2000/svg" xml:space="preserve" width="247px" height="247px" version="1.1" style="shape-rendering:geometricPrecision; text-rendering:geometricPrecision; image-rendering:optimizeQuality; fill-rule:evenodd; clip-rule:evenodd"
viewBox="0 0 29 29"
 xmlns:xlink="http://www.w3.org/1999/xlink">
 <defs>
  <style type="text/css">
   <![CDATA[
    .fil1 {fill:#81F500}
    .fil0 {fill:#81F500;fill-rule:nonzero}
   ]]>
  </style>
   <mask id="id0">
  <radialGradient id="id1" gradientUnits="userSpaceOnUse" cx="-0" cy="0" r="0" fx="-0" fy="0">
   <stop offset="0" style="stop-opacity:0.439216; stop-color:white"/>
   <stop offset="1" style="stop-opacity:0; stop-color:white"/>
  </radialGradient>
    <rect style="fill:url(#id1)" width="29.4337" height="29.4337"/>
   </mask>
 </defs>
 <g id="Layer_x0020_1">
  <metadata id="CorelCorpID_0Corel-Layer"/>
  <path class="fil0" d="M26 20l-11 0 0 6 -11 -11 11 -11 0 5 11 0 0 11zm-6 0m-5 3m-6 -3m0 -11m6 -3m5 3m6 6"/>
  <path class="fil1" style="mask:url(#id0)" d="M15 0c8,0 14,7 14,15 0,8 -6,14 -14,14 -8,0 -15,-6 -15,-14 0,-8 7,-15 15,-15z"/>
 </g>
</svg>
