<?xml version="1.0" encoding="UTF-8"?>
<!DOCTYPE svg PUBLIC "-//W3C//DTD SVG 1.1//EN" "http://www.w3.org/Graphics/SVG/1.1/DTD/svg11.dtd">
<!-- Creator: CorelDRAW X7 -->
<svg xmlns="http://www.w3.org/2000/svg" xml:space="preserve" width="247px" height="247px" version="1.1" style="shape-rendering:geometricPrecision; text-rendering:geometricPrecision; image-rendering:optimizeQuality; fill-rule:evenodd; clip-rule:evenodd"
viewBox="0 0 27 27"
 xmlns:xlink="http://www.w3.org/1999/xlink">
 <defs>
  <style type="text/css">
   <![CDATA[
    .fil1 {fill:#81F500}
    .fil0 {fill:#81F500;fill-rule:nonzero}
   ]]>
  </style>
   <mask id="id0">
  <radialGradient id="id1" gradientUnits="userSpaceOnUse" cx="-0" cy="0" r="0" fx="-0" fy="0">
   <stop offset="0" style="stop-opacity:0.439216; stop-color:white"/>
   <stop offset="1" style="stop-opacity:0; stop-color:white"/>
  </radialGradient>
    <rect style="fill:url(#id1)" width="27.4096" height="27.4096"/>
   </mask>
 </defs>
 <g id="Layer_x0020_1">
  <metadata id="CorelCorpID_0Corel-Layer"/>
  <path class="fil0" d="M3 19l11 0 0 5 10 -10 -10 -11 0 5 -11 0 0 11zm5 0m6 2m5 -2m0 -11m-5 -2m-6 2m-5 6"/>
  <path class="fil1" style="mask:url(#id0)" d="M14 0c7,0 13,6 13,14 0,7 -6,13 -13,13 -8,0 -14,-6 -14,-13 0,-8 6,-14 14,-14z"/>
 </g>
</svg>
