<?xml version="1.0" encoding="UTF-8"?>
<!DOCTYPE svg PUBLIC "-//W3C//DTD SVG 1.1//EN" "http://www.w3.org/Graphics/SVG/1.1/DTD/svg11.dtd">
<!-- Creator: CorelDRAW X7 -->
<svg xmlns="http://www.w3.org/2000/svg" xml:space="preserve" width="153px" height="137px" version="1.1" style="shape-rendering:geometricPrecision; text-rendering:geometricPrecision; image-rendering:optimizeQuality; fill-rule:evenodd; clip-rule:evenodd"
viewBox="0 0 142 127"
 xmlns:xlink="http://www.w3.org/1999/xlink">
 <defs>
  <style type="text/css">
   <![CDATA[
    .fil0 {fill:#C5C6C6}
   ]]>
  </style>
 </defs>
 <g id="Layer_x0020_1">
  <metadata id="CorelCorpID_0Corel-Layer"/>
  <path class="fil0" d="M0 12c2,5 8,9 11,13l-5 6 23 0c-2,5 -4,6 -7,10 -8,12 -11,27 -10,41 1,16 12,39 23,45l16 -16 -8 -9 -8 8c-6,-6 -10,-16 -11,-27l12 0 0 -11 -12 -1c0,-9 5,-21 11,-26l27 27c-1,24 18,22 25,16 4,-4 14,-25 -17,-25 -5,-8 -22,-21 -26,-28 6,-5 17,-10 27,-11l0 12 11 0 1 -12c10,1 20,5 26,11 -2,4 -4,6 -7,7 2,5 4,7 9,9l7 -7c6,6 10,17 11,27 -13,0 -12,-2 -11,12l11 0c0,11 -5,21 -11,26 -3,-1 -4,-3 -7,-6 -3,1 -3,1 -5,3l-4 5 16 16c18,-9 39,-57 7,-93 -9,-11 -25,-21 -44,-22 -30,-2 -44,14 -50,17l0 -22c-4,2 -2,2 -8,4l-11 -11c-5,4 -8,7 -12,12z"/>
 </g>
</svg>
