<?xml version="1.0" encoding="UTF-8" standalone="no"?>
<!-- Created with Inkscape (http://www.inkscape.org/) -->

<svg
   xmlns:dc="http://purl.org/dc/elements/1.1/"
   xmlns:cc="http://creativecommons.org/ns#"
   xmlns:rdf="http://www.w3.org/1999/02/22-rdf-syntax-ns#"
   xmlns:svg="http://www.w3.org/2000/svg"
   xmlns="http://www.w3.org/2000/svg"
   xmlns:sodipodi="http://sodipodi.sourceforge.net/DTD/sodipodi-0.dtd"
   xmlns:inkscape="http://www.inkscape.org/namespaces/inkscape"
   width="141.11111mm"
   height="141.11111mm"
   viewBox="0 0 500.00001 500.00001"
   id="svg9800"
   version="1.1"
   inkscape:version="0.92.1 r15371"
   sodipodi:docname="Emblem_of_the_Ukrainian_Ground_Forces.svg">
  <defs
     id="defs9802" />
  <sodipodi:namedview
     id="base"
     pagecolor="#ffffff"
     bordercolor="#666666"
     borderopacity="1.0"
     inkscape:pageopacity="0.0"
     inkscape:pageshadow="2"
     inkscape:zoom="1.1718749"
     inkscape:cx="266.66669"
     inkscape:cy="266.66666"
     inkscape:document-units="px"
     inkscape:current-layer="layer1"
     showgrid="false"
     fit-margin-top="0"
     fit-margin-left="0"
     fit-margin-right="0"
     fit-margin-bottom="0"
     inkscape:window-width="1600"
     inkscape:window-height="838"
     inkscape:window-x="-8"
     inkscape:window-y="-8"
     inkscape:window-maximized="1" />
  <metadata
     id="metadata9805">
    <rdf:RDF>
      <cc:Work
         rdf:about="">
        <dc:format>image/svg+xml</dc:format>
        <dc:type
           rdf:resource="http://purl.org/dc/dcmitype/StillImage" />
        <dc:title />
      </cc:Work>
    </rdf:RDF>
  </metadata>
  <g
     inkscape:label="Layer 1"
     inkscape:groupmode="layer"
     id="layer1"
     transform="translate(-124.99999,-282.36224)">
    <g
       id="g7817"
       transform="matrix(1.4109503,0,0,1.4109503,-765.45836,-2209.1611)">
      <path
         sodipodi:nodetypes="ccccccccccccc"
         inkscape:connector-curvature="0"
         id="path7568"
         d="m 746.41595,1766.3477 37.46289,152.2735 -152.27344,-37.4629 0,123.75 152.27539,-37.4648 -37.46484,152.2753 123.75,0 -37.4668,-152.2773 152.27735,37.4668 0,-123.75 -152.2754,37.4648 37.46485,-152.2754 z"
         style="color:#000000;font-style:normal;font-variant:normal;font-weight:normal;font-stretch:normal;font-size:medium;line-height:normal;font-family:sans-serif;text-indent:0;text-align:start;text-decoration:none;text-decoration-line:none;text-decoration-style:solid;text-decoration-color:#000000;letter-spacing:normal;word-spacing:normal;text-transform:none;direction:ltr;block-progression:tb;writing-mode:lr-tb;baseline-shift:baseline;text-anchor:start;white-space:normal;clip-rule:nonzero;display:inline;overflow:visible;visibility:visible;opacity:1;isolation:auto;mix-blend-mode:normal;color-interpolation:sRGB;color-interpolation-filters:linearRGB;solid-color:#000000;solid-opacity:1;fill:#ffdf00;fill-opacity:1;fill-rule:nonzero;stroke:#806600;stroke-width:1;stroke-linecap:butt;stroke-linejoin:miter;stroke-miterlimit:4;stroke-dasharray:none;stroke-dashoffset:0;stroke-opacity:1;color-rendering:auto;image-rendering:auto;shape-rendering:auto;text-rendering:auto;enable-background:accumulate" />
      <path
         sodipodi:nodetypes="ccccccccccccc"
         inkscape:connector-curvature="0"
         id="path7570"
         d="m 793.10014,1927.8425 -38.07208,-154.7446 106.52581,0 -38.07213,154.7446 154.74464,-38.0721 0,106.5258 -154.74464,-38.0721 38.07213,154.7446 -106.52581,0 38.07208,-154.7446 -154.74462,38.0721 0,-106.5258 z"
         style="opacity:1;fill:#d50663;stroke:#806600" />
      <g
         transform="matrix(0.70710678,-0.70710678,0.70710678,0.70710678,122.7873,1190.6547)"
         id="g7572">
        <path
           sodipodi:nodetypes="cccccc"
           inkscape:connector-curvature="0"
           id="path7574"
           d="m -47.287761,862.51197 12.285981,12.89676 0,246.25787 -24.571962,0 0,-246.25787 z"
           style="opacity:1;fill:#ffdf00;stroke:#806600;stroke-width:1;stroke-linecap:round;stroke-linejoin:round;stroke-miterlimit:4;stroke-dasharray:none" />
        <path
           sodipodi:nodetypes="ccccc"
           style="opacity:1;fill:#ffdf00;stroke:#806600;stroke-width:1;stroke-linecap:round;stroke-linejoin:round;stroke-miterlimit:4;stroke-dasharray:none"
           d="m -55.220615,1122.6702 15.865708,0 -1.375,32.9334 -13.115708,0 z"
           id="path7576"
           inkscape:connector-curvature="0" />
        <path
           inkscape:connector-curvature="0"
           style="color:#000000;font-style:normal;font-variant:normal;font-weight:normal;font-stretch:normal;font-size:medium;line-height:normal;font-family:sans-serif;text-indent:0;text-align:start;text-decoration:none;text-decoration-line:none;text-decoration-style:solid;text-decoration-color:#000000;letter-spacing:normal;word-spacing:normal;text-transform:none;direction:ltr;block-progression:tb;writing-mode:lr-tb;baseline-shift:baseline;text-anchor:start;white-space:normal;clip-rule:nonzero;display:inline;overflow:visible;visibility:visible;opacity:1;isolation:auto;mix-blend-mode:normal;color-interpolation:sRGB;color-interpolation-filters:linearRGB;solid-color:#000000;solid-opacity:1;fill:#806600;fill-opacity:1;fill-rule:evenodd;stroke:none;stroke-width:1;stroke-linecap:round;stroke-linejoin:round;stroke-miterlimit:4;stroke-dasharray:none;stroke-dashoffset:0;stroke-opacity:1;color-rendering:auto;image-rendering:auto;shape-rendering:auto;text-rendering:auto;enable-background:accumulate"
           d="m -39.552734,1124.7695 a 0.50005,0.50005 0 0 0 -0.181641,0.031 l -15.171875,5.4004 0.04297,1.0449 a 0.50005,0.50005 0 0 0 0.02344,-0.01 l 15.355469,-5.4649 0.04102,-0.9902 a 0.50005,0.50005 0 0 0 -0.109375,-0.014 z m -0.123047,5.5938 a 0.50005,0.50005 0 0 0 -0.05859,0.018 l -14.941406,5.3183 0.04297,1.0449 14.912109,-5.3066 0.04492,-1.0742 z m -0.236328,5.6621 -14.535157,5.1699 0.04297,1.0469 14.447266,-5.1406 0.04492,-1.0762 z m -0.238282,5.6641 -14.066406,5.0039 0.04297,1.0488 13.978516,-4.9766 0.04492,-1.0761 z m -0.236328,5.6621 -13.601562,4.8418 0.04297,1.0449 13.513671,-4.8086 0.04492,-1.0781 z"
           id="path7578" />
        <path
           inkscape:connector-curvature="0"
           id="path7580"
           d="m -47.287761,887.31625 0,234.60755"
           style="color:#000000;clip-rule:nonzero;display:inline;overflow:visible;visibility:visible;opacity:1;isolation:auto;mix-blend-mode:normal;color-interpolation:sRGB;color-interpolation-filters:linearRGB;solid-color:#000000;solid-opacity:1;fill:none;fill-opacity:1;fill-rule:evenodd;stroke:#806600;stroke-width:1;stroke-linecap:round;stroke-linejoin:round;stroke-miterlimit:4;stroke-dasharray:none;stroke-dashoffset:0;stroke-opacity:1;color-rendering:auto;image-rendering:auto;shape-rendering:auto;text-rendering:auto;enable-background:accumulate" />
        <path
           sodipodi:nodetypes="cssssccc"
           inkscape:connector-curvature="0"
           id="path7582"
           d="m -75.537761,1113.247 0,10.1524 c 0,0.3462 0.27875,0.625 0.625,0.625 l 55.25,0 c 0.34625,0 0.625,-0.2788 0.625,-0.625 l 0,-10.1524 -28.25,4.5625 z"
           style="opacity:1;fill:#ffdf00;stroke:#806600;stroke-width:1;stroke-linecap:round;stroke-linejoin:round;stroke-miterlimit:4;stroke-dasharray:none" />
        <path
           style="color:#000000;clip-rule:nonzero;display:inline;overflow:visible;visibility:visible;opacity:1;isolation:auto;mix-blend-mode:normal;color-interpolation:sRGB;color-interpolation-filters:linearRGB;solid-color:#000000;solid-opacity:1;fill:#ffdf00;fill-opacity:1;fill-rule:evenodd;stroke:#806600;stroke-width:1;stroke-linecap:round;stroke-linejoin:round;stroke-miterlimit:4;stroke-dasharray:none;stroke-dashoffset:0;stroke-opacity:1;color-rendering:auto;image-rendering:auto;shape-rendering:auto;text-rendering:auto;enable-background:accumulate"
           d="m -60.694011,1153.9423 c 0,0 3.792174,12.5 13.40625,12.5 9.614076,0 13.40625,-12.5 13.40625,-12.5 0,0 -4.349384,1.4375 -13.40625,1.4375 -9.056866,0 -13.40625,-1.4375 -13.40625,-1.4375 z"
           id="path7584"
           inkscape:connector-curvature="0"
           sodipodi:nodetypes="czczc" />
      </g>
      <g
         id="g7586"
         transform="matrix(-0.70710678,-0.70710678,-0.70710678,0.70710678,1493.7946,1190.6547)">
        <path
           style="opacity:1;fill:#ffdf00;stroke:#806600;stroke-width:1;stroke-linecap:round;stroke-linejoin:round;stroke-miterlimit:4;stroke-dasharray:none"
           d="m -47.287761,862.51197 12.285981,12.89676 0,246.25787 -24.571962,0 0,-246.25787 z"
           id="path7588"
           inkscape:connector-curvature="0"
           sodipodi:nodetypes="cccccc" />
        <path
           inkscape:connector-curvature="0"
           id="path7590"
           d="m -55.220615,1122.6702 15.865708,0 -1.375,32.9334 -13.115708,0 z"
           style="opacity:1;fill:#ffdf00;stroke:#806600;stroke-width:1;stroke-linecap:round;stroke-linejoin:round;stroke-miterlimit:4;stroke-dasharray:none"
           sodipodi:nodetypes="ccccc" />
        <path
           id="path7592"
           d="m -39.552734,1124.7695 a 0.50005,0.50005 0 0 0 -0.181641,0.031 l -15.171875,5.4004 0.04297,1.0449 a 0.50005,0.50005 0 0 0 0.02344,-0.01 l 15.355469,-5.4649 0.04102,-0.9902 a 0.50005,0.50005 0 0 0 -0.109375,-0.014 z m -0.123047,5.5938 a 0.50005,0.50005 0 0 0 -0.05859,0.018 l -14.941406,5.3183 0.04297,1.0449 14.912109,-5.3066 0.04492,-1.0742 z m -0.236328,5.6621 -14.535157,5.1699 0.04297,1.0469 14.447266,-5.1406 0.04492,-1.0762 z m -0.238282,5.6641 -14.066406,5.0039 0.04297,1.0488 13.978516,-4.9766 0.04492,-1.0761 z m -0.236328,5.6621 -13.601562,4.8418 0.04297,1.0449 13.513671,-4.8086 0.04492,-1.0781 z"
           style="color:#000000;font-style:normal;font-variant:normal;font-weight:normal;font-stretch:normal;font-size:medium;line-height:normal;font-family:sans-serif;text-indent:0;text-align:start;text-decoration:none;text-decoration-line:none;text-decoration-style:solid;text-decoration-color:#000000;letter-spacing:normal;word-spacing:normal;text-transform:none;direction:ltr;block-progression:tb;writing-mode:lr-tb;baseline-shift:baseline;text-anchor:start;white-space:normal;clip-rule:nonzero;display:inline;overflow:visible;visibility:visible;opacity:1;isolation:auto;mix-blend-mode:normal;color-interpolation:sRGB;color-interpolation-filters:linearRGB;solid-color:#000000;solid-opacity:1;fill:#806600;fill-opacity:1;fill-rule:evenodd;stroke:none;stroke-width:1;stroke-linecap:round;stroke-linejoin:round;stroke-miterlimit:4;stroke-dasharray:none;stroke-dashoffset:0;stroke-opacity:1;color-rendering:auto;image-rendering:auto;shape-rendering:auto;text-rendering:auto;enable-background:accumulate"
           inkscape:connector-curvature="0" />
        <path
           style="color:#000000;clip-rule:nonzero;display:inline;overflow:visible;visibility:visible;opacity:1;isolation:auto;mix-blend-mode:normal;color-interpolation:sRGB;color-interpolation-filters:linearRGB;solid-color:#000000;solid-opacity:1;fill:none;fill-opacity:1;fill-rule:evenodd;stroke:#806600;stroke-width:1;stroke-linecap:round;stroke-linejoin:round;stroke-miterlimit:4;stroke-dasharray:none;stroke-dashoffset:0;stroke-opacity:1;color-rendering:auto;image-rendering:auto;shape-rendering:auto;text-rendering:auto;enable-background:accumulate"
           d="m -47.287761,887.31625 0,234.60755"
           id="path7594"
           inkscape:connector-curvature="0" />
        <path
           style="opacity:1;fill:#ffdf00;stroke:#806600;stroke-width:1;stroke-linecap:round;stroke-linejoin:round;stroke-miterlimit:4;stroke-dasharray:none"
           d="m -75.537761,1113.247 0,10.1524 c 0,0.3462 0.27875,0.625 0.625,0.625 l 55.25,0 c 0.34625,0 0.625,-0.2788 0.625,-0.625 l 0,-10.1524 -28.25,4.5625 z"
           id="path7596"
           inkscape:connector-curvature="0"
           sodipodi:nodetypes="cssssccc" />
        <path
           sodipodi:nodetypes="czczc"
           inkscape:connector-curvature="0"
           id="path7598"
           d="m -60.694011,1153.9423 c 0,0 3.792174,12.5 13.40625,12.5 9.614076,0 13.40625,-12.5 13.40625,-12.5 0,0 -4.349384,1.4375 -13.40625,1.4375 -9.056866,0 -13.40625,-1.4375 -13.40625,-1.4375 z"
           style="color:#000000;clip-rule:nonzero;display:inline;overflow:visible;visibility:visible;opacity:1;isolation:auto;mix-blend-mode:normal;color-interpolation:sRGB;color-interpolation-filters:linearRGB;solid-color:#000000;solid-opacity:1;fill:#ffdf00;fill-opacity:1;fill-rule:evenodd;stroke:#806600;stroke-width:1;stroke-linecap:round;stroke-linejoin:round;stroke-miterlimit:4;stroke-dasharray:none;stroke-dashoffset:0;stroke-opacity:1;color-rendering:auto;image-rendering:auto;shape-rendering:auto;text-rendering:auto;enable-background:accumulate" />
      </g>
      <path
         inkscape:connector-curvature="0"
         id="path7728"
         d="m 878.91595,1943.0333 a 70.625,70.625 0 0 1 -70.625,70.625 70.625,70.625 0 0 1 -70.625,-70.625 70.625,70.625 0 0 1 70.625,-70.625 70.625,70.625 0 0 1 70.625,70.625 z"
         style="opacity:1;fill:#ffdf00;stroke:#806600;stroke-width:1;stroke-miterlimit:4;stroke-dasharray:none" />
      <path
         inkscape:connector-curvature="0"
         style="opacity:1;fill:#001788;stroke:#806600;stroke-width:1;stroke-miterlimit:4;stroke-dasharray:none"
         d="m 871.62931,1943.0333 a 63.338378,63.338378 0 0 1 -63.33836,63.3384 63.338378,63.338378 0 0 1 -63.33836,-63.3384 63.338378,63.338378 0 0 1 63.33836,-63.3384 63.338378,63.338378 0 0 1 63.33836,63.3384 z"
         id="path7730" />
      <path
         inkscape:connector-curvature="0"
         d="m 808.29095,1889.8 c -2.48077,2.8152 -3.99251,6.5001 -3.99251,10.5448 0.14701,8.8808 1.23623,17.7436 1.33082,26.6218 0.19692,8.2743 -2.28486,16.0458 -5.30256,23.6268 -1.00545,2.095 -2.09319,4.1455 -3.18147,6.198 l -3.20231,-0.6448 c -2.8815,-0.5762 -4.75574,-3.3783 -4.17963,-6.2602 0.50402,-2.5218 2.72321,-4.2729 5.19856,-4.2845 l 1.16445,0.1248 -2.59932,-21.7134 c -0.84952,-9.6692 -5.83705,-18.1505 -13.18351,-23.6685 -1.26248,-0.9482 -2.6001,-1.8152 -3.9925,-2.579 l 0,77.1201 17.79984,0 c 1.33097,7.2263 5.30725,13.5218 10.89621,17.845 1.3294,0.9164 2.44299,2.1252 3.24393,3.5357 0.80093,-1.4105 1.91445,-2.6193 3.24385,-3.5357 5.58903,-4.3232 9.56533,-10.6187 10.89621,-17.845 l 17.79992,0 0,-77.1201 c -1.3924,0.7638 -2.73003,1.6308 -3.99251,2.579 -7.34652,5.518 -12.33399,13.9993 -13.18358,23.6685 l -2.59931,21.7134 1.16452,-0.1248 c 2.47536,0.012 4.69446,1.7627 5.19857,4.2845 0.57611,2.8819 -1.29821,5.684 -4.17964,6.2602 l -3.20232,0.6448 c -1.08835,-2.0525 -2.176,-4.103 -3.18154,-6.198 -3.01762,-7.581 -5.49948,-15.3525 -5.30255,-23.6268 0.0947,-8.8782 1.18388,-17.741 1.33088,-26.6218 0,-4.0447 -1.51174,-7.7296 -3.9925,-10.5448 z m -26.61666,19.0721 c 3.44491,4.0439 5.75688,9.083 6.44623,14.6212 l 2.14177,17.9074 c -2.72721,1.358 -4.79477,3.8493 -5.57282,6.8634 l -3.01518,0 0,-39.392 z m 53.23324,0 0,39.392 -3.0151,0 c -0.77812,-3.0141 -2.84562,-5.5054 -5.5729,-6.8634 l 2.14185,-17.9074 c 0.68935,-5.5382 3.00132,-10.5773 6.44615,-14.6212 z m -26.61658,36.0018 c 1.42994,4.6779 3.39728,9.1199 5.84317,13.2485 -2.32639,0.7069 -4.35117,2.0819 -5.84317,3.9309 -1.492,-1.849 -3.51678,-3.2239 -5.84316,-3.9309 2.44589,-4.1286 4.41314,-8.5706 5.84316,-13.2485 z m -26.61666,8.7146 3.01518,0 c 0.95068,3.6744 3.81886,6.5778 7.46509,7.5913 l 2.55771,0.5824 c -0.68488,2.4831 -1.06047,5.0995 -1.06047,7.7993 l -11.97751,0 0,-15.973 z m 50.21814,0 3.0151,0 0,15.973 -11.97744,0 c 0,-2.6998 -0.37566,-5.3162 -1.06054,-7.7993 l 2.55771,-0.5824 c 3.64632,-1.0135 6.51449,-3.9169 7.46517,-7.5913 z m -31.98159,9.4008 c 3.22927,0.4565 5.71842,3.217 5.71842,6.5722 l -6.65414,0 c 0,-2.2823 0.33798,-4.4818 0.93572,-6.5722 z m 16.76023,0 c 0.59766,2.0904 0.9357,4.2899 0.9357,6.5722 l -6.6542,0 c 0,-3.3552 2.48914,-6.1157 5.7185,-6.5722 z m -17.09296,11.8966 6.05115,0 0,11.2103 c -2.93668,-3.0707 -5.0699,-6.9263 -6.05115,-11.2103 z m 11.37446,0 6.05114,0 c -0.98117,4.284 -3.11447,8.1396 -6.05114,11.2103 l 0,-11.2103 z"
         id="path7732"
         style="display:inline;opacity:1;fill:#ffdf00;fill-opacity:1" />
    </g>
  </g>
</svg>
