<?xml version="1.0" encoding="iso-8859-1"?>
<!-- Generator: Adobe Illustrator 19.0.0, SVG Export Plug-In . SVG Version: 6.00 Build 0)  -->
<svg xmlns="http://www.w3.org/2000/svg" xmlns:xlink="http://www.w3.org/1999/xlink" version="1.1" id="Layer_1" x="0px" y="0px" viewBox="0 0 490.86 490.86" style="enable-background:new 0 0 490.86 490.86;" xml:space="preserve" width="512" height="512">
<g>
	<path style="fill:#046EFF;" d="M331.18,245.43c0,48.86-9.04,97.72-27.12,144.02c-2.25,5.78-7.79,9.62-14,9.62H155.3   C70.42,399.07,0.33,330.92,0,246.04v-0.61C0,160.6,68.76,91.79,153.62,91.79h136.44c6.21,0,11.75,3.84,14,9.62   C322.14,147.71,331.18,196.57,331.18,245.43z"/>
	<path style="fill:#0051BF;" d="M331.18,245.43c0,48.86-9.04,97.72-27.12,144.02c-2.25,5.78-7.79,9.62-14,9.62H155.3   C70.42,399.07,0.33,330.92,0,246.04v-0.61H331.18z"/>
	<path style="fill:#8CBCFF;" d="M331.18,245.43c0,48.86-9.04,97.72-27.12,144.02c-2.25,5.78-7.79,9.62-14,9.62h-60.05   c20.68-49.13,31.01-101.38,31.01-153.64s-10.33-104.51-31.01-153.64h60.05c6.21,0,11.75,3.84,14,9.62   C322.14,147.71,331.18,196.57,331.18,245.43z"/>
	<path style="fill:#4895FF;" d="M331.18,245.43c0,48.86-9.04,97.72-27.12,144.02c-2.25,5.78-7.79,9.62-14,9.62h-60.05   c20.68-49.13,31.01-101.38,31.01-153.64H331.18z"/>
	<path style="fill:#FFCD00;" d="M367.976,121.286h87.14c8.284,0,15-6.716,15-15s-6.716-15-15-15h-87.14c-8.284,0-15,6.716-15,15   S359.692,121.286,367.976,121.286z"/>
	<path style="fill:#FFCD00;" d="M373.72,199.049c0,8.284,6.716,15,15,15h87.14c8.284,0,15-6.716,15-15s-6.716-15-15-15h-87.14   C380.436,184.049,373.72,190.765,373.72,199.049z"/>
	<path style="fill:#FFB655;" d="M475.86,276.811h-87.14c-8.284,0-15,6.716-15,15s6.716,15,15,15h87.14c8.284,0,15-6.716,15-15   S484.144,276.811,475.86,276.811z"/>
	<path style="fill:#FFB655;" d="M455.116,369.574h-87.14c-8.284,0-15,6.716-15,15s6.716,15,15,15h87.14c8.284,0,15-6.716,15-15   S463.4,369.574,455.116,369.574z"/>
</g>















</svg>
