<svg height="512pt" viewBox="0 -76 512 512" width="512pt" xmlns="http://www.w3.org/2000/svg"><path d="m264.300781 0h-60.003906c24.027344 48.402344 35.703125 102.390625 35.703125 150 0 47.386719-11.578125 101.402344-35.707031 150h60.007812c24.292969-49.019531 35.699219-102.953125 35.699219-150 0-47.003906-11.386719-100.945312-35.699219-150zm0 0"/><path d="m181.566406 21.664062-10.753906-21.664062h-20.8125c-82.703125 0-150 67.296875-150 150s67.296875 150 150 150h20.8125c22.804688-45.9375 39.1875-92.023438 39.1875-150 0-70.222656-28.152344-127.761719-28.433594-128.335938zm0 0"/><path d="m512 60.777344-177.253906-60-9.492188 28.445312 177.253906 60zm0 0"/><path d="m325.253906 119.222656 177.253906 60 9.492188-28.445312-177.253906-60zm0 0"/><path d="m325.253906 209.222656 177.253906 60 9.492188-28.445312-177.253906-60zm0 0"/><path d="m325.253906 299.222656 177.253906 60 9.492188-28.445312-177.253906-60zm0 0"/></svg>