<?xml version="1.0" encoding="iso-8859-1"?>
<!-- Generator: Adobe Illustrator 19.0.0, SVG Export Plug-In . SVG Version: 6.00 Build 0)  -->
<svg xmlns="http://www.w3.org/2000/svg" xmlns:xlink="http://www.w3.org/1999/xlink" version="1.1" id="Layer_1" x="0px" y="0px" viewBox="0 0 492.031 492.031" style="enable-background:new 0 0 492.031 492.031;" xml:space="preserve" width="512" height="512">
<g>
	<path d="M157.551,88.436c-87.313,0-157.881,70.853-157.55,158.2c0.33,86.55,71.85,156.96,159.44,156.96h73.83   c39.62-100.7,39.62-214.46,0-315.16H157.551z"/>
	<path d="M265.371,88.436c18.48,50.56,27.83,103.46,27.83,157.58s-9.35,107.02-27.83,157.58h36.339   c6.278,0,11.922-3.898,14.075-9.795c34.668-94.968,34.668-200.602,0-295.57c-2.153-5.897-7.797-9.795-14.075-9.795H265.371z"/>
	<path d="M369.147,121.872h87.14c8.284,0,15-6.716,15-15s-6.716-15-15-15h-87.14c-8.284,0-15,6.716-15,15   S360.863,121.872,369.147,121.872z"/>
	<path d="M374.891,199.635c0,8.284,6.716,15,15,15h87.14c8.284,0,15-6.716,15-15s-6.716-15-15-15h-87.14   C381.607,184.635,374.891,191.351,374.891,199.635z"/>
	<path d="M477.031,277.397h-87.14c-8.284,0-15,6.716-15,15s6.716,15,15,15h87.14c8.284,0,15-6.716,15-15   S485.316,277.397,477.031,277.397z"/>
	<path d="M456.287,370.159h-87.14c-8.284,0-15,6.716-15,15s6.716,15,15,15h87.14c8.284,0,15-6.716,15-15   S464.571,370.159,456.287,370.159z"/>
</g>















</svg>
