<?xml version="1.0" encoding="iso-8859-1"?>
<!-- Generator: Adobe Illustrator 19.0.0, SVG Export Plug-In . SVG Version: 6.00 Build 0)  -->
<svg version="1.1" id="Capa_1" xmlns="http://www.w3.org/2000/svg" xmlns:xlink="http://www.w3.org/1999/xlink" x="0px" y="0px"
	 viewBox="0 0 512 512" style="enable-background:new 0 0 512 512;" xml:space="preserve">
<circle style="fill:#662E57;" cx="256" cy="256" r="256"/>
<path style="fill:#590F38;" d="M512,256c0-5.199-0.174-10.357-0.479-15.479L340.667,69.667L318.94,197.274L191.333,69.667
	l-2.773,149.45L94.616,381.588l128.287,128.287C233.738,511.273,244.784,512,256,512C397.385,512,512,397.385,512,256z"/>
<rect x="320.67" y="69.67" style="fill:#C0C0C0;" width="20" height="134.67"/>
<rect x="171.33" y="69.67" style="fill:#E0E0E0;" width="20" height="134.67"/>
<path style="fill:#FFFFFF;" d="M429.725,335.264l-26.989-118.71c-6.31-27.752-33.922-45.135-61.674-38.825l0,0
	c-6.438,1.464-12.309,4.086-17.465,7.578H188.403c-5.156-3.493-11.027-6.115-17.465-7.578l0,0
	c-27.752-6.31-55.364,11.073-61.674,38.825l-26.989,118.71c-6.31,27.752,11.073,55.364,38.825,61.674l0,0
	c27.752,6.31,55.364-11.073,61.674-38.825l7.207-31.698h132.038l7.207,31.698c6.31,27.752,33.922,45.135,61.674,38.825l0,0
	C418.652,390.628,436.035,363.016,429.725,335.264z"/>
<path style="fill:#E0E0E0;" d="M429.725,335.264l-26.989-118.71c-6.31-27.752-33.922-45.135-61.674-38.825l0,0
	c-6.438,1.464-12.309,4.086-17.465,7.578h-67.644v141.107h66.066l7.207,31.698c6.31,27.752,33.922,45.135,61.674,38.825
	C418.652,390.628,436.035,363.016,429.725,335.264z"/>
<circle style="fill:#666666;" cx="188.67" cy="254.33" r="43.33"/>
<circle style="fill:#4D4D4D;" cx="323.33" cy="254.33" r="43.33"/>
<path style="fill:#FFDC00;" d="M192.674,257.817L192.674,257.817c-3.765,3.765-9.869,3.766-13.635,0.002l-28.344-28.325
	c-3.768-3.766-3.769-9.874-0.002-13.641l0,0c3.765-3.765,9.869-3.765,13.635-0.002l28.344,28.325
	C196.44,247.942,196.441,254.05,192.674,257.817z"/>
<path style="fill:#FFC000;" d="M314.791,258.729L314.791,258.729c-3.662-3.867-3.495-9.971,0.373-13.632l29.081-27.533
	c3.867-3.661,9.971-3.494,13.632,0.373l0,0c3.661,3.867,3.494,9.971-0.373,13.632l-29.081,27.533
	C324.555,262.764,318.452,262.597,314.791,258.729z"/>
<g>
</g>
<g>
</g>
<g>
</g>
<g>
</g>
<g>
</g>
<g>
</g>
<g>
</g>
<g>
</g>
<g>
</g>
<g>
</g>
<g>
</g>
<g>
</g>
<g>
</g>
<g>
</g>
<g>
</g>
</svg>
