<?xml version="1.0" encoding="iso-8859-1"?>
<!-- Generator: Adobe Illustrator 19.0.0, SVG Export Plug-In . SVG Version: 6.00 Build 0)  -->
<svg xmlns="http://www.w3.org/2000/svg" xmlns:xlink="http://www.w3.org/1999/xlink" version="1.1" id="Layer_1" x="0px" y="0px" viewBox="0 0 491.105 491.105" style="enable-background:new 0 0 491.105 491.105;" xml:space="preserve" width="512" height="512">
<g>
	<rect x="52.093" y="393.537" style="fill:#C9001C;" width="222.328" height="97.568"/>
	<path style="fill:#C9001C;" d="M289.297,70.295L245.5,159.523l-42.279,86.139L96.143,463.804   c-11.861,24.186-41.098,34.171-65.284,22.299c-24.22-11.888-34.148-41.156-22.299-65.295L94.53,245.662L201.366,28.016l0.348-0.717   L289.297,70.295z"/>
	<path style="fill:#FF1F3E;" d="M94.53,245.662h108.691L96.143,463.804c-11.861,24.186-41.098,34.171-65.284,22.299   c-24.22-11.888-34.148-41.156-22.299-65.295L94.53,245.662z"/>
	<path style="fill:#FFDA44;" d="M57.688,426.697c-6.176-6.176-16.19-6.176-22.366,0c-6.176,6.176-6.176,16.19,0,22.366l9.319,9.319   c6.177,6.177,16.19,6.176,22.366,0c6.176-6.176,6.176-16.19,0-22.366L57.688,426.697z"/>
	<path style="fill:#FF1F3E;" d="M482.43,420.809l-87.584,42.996L287.779,245.662L245.5,159.523l-0.074-0.147l-43.723-89.081   C189.837,46.12,199.821,16.875,224.002,5c24.024-11.811,53.337-2.027,65.284,22.299L396.46,245.662L482.43,420.809z"/>
	<polygon style="fill:#C9001C;" points="482.43,420.809 394.847,463.804 287.779,245.662 396.46,245.662  "/>
	<path style="fill:#FFDA44;" d="M245.426,32.159c-8.734,0-15.815,7.081-15.815,15.815v9.489c0,8.734,7.081,15.815,15.815,15.815   c8.734,0,15.815-7.081,15.815-15.815v-9.489C261.241,39.24,254.161,32.159,245.426,32.159z"/>
	<path style="fill:#EEBF00;" d="M245.426,32.159v41.119c8.734,0,15.815-7.081,15.815-15.815v-9.489   C261.241,39.24,254.161,32.159,245.426,32.159z"/>
	<path style="fill:#FF1F3E;" d="M487.544,442.321c0,26.929-21.822,48.784-48.784,48.784H245.426v-97.568H438.76   C465.709,393.537,487.544,415.383,487.544,442.321z"/>
	<path style="fill:#EEBF00;" d="M450.083,426.697c-6.176-6.176-16.19-6.176-22.366,0l-9.319,9.319   c-6.176,6.176-6.176,16.19,0,22.366c6.177,6.177,16.19,6.176,22.366,0l9.319-9.319   C456.259,442.887,456.259,432.873,450.083,426.697z"/>
</g>















</svg>
