<?xml version="1.0" encoding="UTF-8"?>
<!DOCTYPE svg PUBLIC "-//W3C//DTD SVG 1.1//EN" "http://www.w3.org/Graphics/SVG/1.1/DTD/svg11.dtd">
<!-- Creator: CorelDRAW X6 -->
<svg xmlns="http://www.w3.org/2000/svg" xml:space="preserve" width="23.2736mm" height="52.5794mm" version="1.1" style="shape-rendering:geometricPrecision; text-rendering:geometricPrecision; image-rendering:optimizeQuality; fill-rule:evenodd; clip-rule:evenodd"
viewBox="0 0 3517 7945"
 xmlns:xlink="http://www.w3.org/1999/xlink">
 <defs>
  <style type="text/css">
   <![CDATA[
    .fil0 {fill:#2DF6FF}
   ]]>
  </style>
 </defs>
 <g id="Layer_x0020_1">
  <metadata id="CorelCorpID_0Corel-Layer"/>
  <path class="fil0" d="M2020 5489c-1,5 -9,-45 -31,-48 -42,10 -20,-3 -37,46l-58 8 -1 104 174 2c0,-1 0,-5 -2,-6l-5 -15c3,-16 27,7 16,-84l-56 -7zm-65 -427c12,36 -19,-9 11,16 32,26 19,-3 38,21 -34,-12 -16,-11 -59,-9 -21,42 -59,96 -35,158 71,2 12,15 50,-39 12,17 9,-20 -4,36 -1,3 -3,7 -3,10l128 2c15,-82 0,-78 -28,-135 -32,-64 -18,-72 -98,-60zm418 1575c14,-191 -168,-170 -192,-76 -14,52 21,111 60,124 72,25 94,-22 132,-48zm-1195 -1875c-23,39 -11,21 -1,39 78,131 -69,206 -153,144 -41,-29 -44,-67 -34,-125 42,-24 37,-38 87,-36 36,2 61,10 75,-23 19,-44 -34,19 0,-12l26 13zm14 241c-10,-28 -25,-23 -6,-46 17,-20 29,-12 20,-46 0,33 -10,13 3,49 0,1 2,5 3,7 138,-207 -127,-346 -245,-197 -84,106 -10,253 117,258 68,3 49,-19 108,-25zm1704 390c-17,87 -23,80 0,167 13,47 20,129 28,168 12,68 10,91 71,122 65,32 107,11 155,-24 75,-56 25,-232 0,-313 -15,-49 -45,-81 -87,-107 -72,-43 -83,-35 -167,-13zm-1239 -786c31,19 60,-32 173,-8 29,7 44,16 68,31 23,15 4,-2 29,20 32,27 11,6 25,33 25,49 43,116 22,177 -8,26 -19,44 -35,66l-13 17c-69,83 -231,108 -327,-34 -96,-140 28,-252 38,-270 11,-19 8,32 7,-28 0,-3 -2,-11 -3,-14 2,-65 249,-78 249,-10 -11,2 -188,-56 -233,20zm-144 60c-73,101 -8,238 8,298 50,12 23,3 60,-5 11,29 25,31 31,41l15 35c2,3 3,5 4,9 44,100 306,23 284,7l45 -87c60,9 64,0 85,-56 21,-60 28,-70 20,-143 -22,-205 -93,-98 -132,-187 -12,-26 10,-50 -103,-69 -62,-10 -167,2 -209,37 -47,40 5,56 -48,90l-60 30zm-988 687l-75 13c-31,15 -46,45 -71,92 -17,34 -14,25 -20,58 -15,89 -43,211 -37,284 4,1 115,102 225,23l26 -28c23,-40 32,-144 43,-200 11,-57 29,-109 28,-183 -41,-25 -46,-59 -119,-59zm289 2033c12,29 19,40 31,60 -23,-11 -26,-18 -41,-33 -1,2 0,5 -2,5 -46,14 1,-2 -9,22 -12,31 -28,27 6,56 -17,-13 -29,1 -45,17 29,14 80,58 97,86 -90,-28 -47,-65 -124,-91 -9,32 -3,45 -3,49 3,55 6,68 81,124l31 24c-34,-17 -43,-28 -69,-56l-63 -56c-14,19 -23,37 -34,65l-11 20c-1,0 -3,2 -4,2 -22,20 3,-22 -12,12 54,90 221,192 336,220 -69,-8 -133,-26 -189,-67 -93,-68 -166,-138 -226,-232 -8,-13 -25,-36 -35,-54 -13,-22 -19,-39 -31,-65 -67,-138 -115,-419 -155,-573 -26,-103 -59,-192 -79,-293 -43,-218 -111,-365 -127,-607 -46,-712 149,-1450 468,-2082 42,-82 109,-174 129,-258 -15,0 -30,0 -46,-1l-54 118 10 0c-16,33 -29,47 -43,79 -12,27 -24,61 -42,87 -2,4 -4,7 -6,9l-131 286 -180 444c-81,115 -158,303 -198,451 -14,53 -20,117 -40,162l-4 557 0 -1 0 21 0 -12c2,54 50,234 63,281 20,70 75,191 110,259 29,57 149,517 152,578l-15 0 65 197c1,-3 1,-6 2,-10l2 22 115 348c25,45 53,85 81,125 62,91 186,200 287,236 27,10 63,16 94,22l1236 4 7 -1 0 1 304 1c92,-16 171,2 250,-55 168,-122 288,-323 327,-523 11,-54 35,-79 40,-135l1 8 19 -64 -8 0 41 -134 6 -1 12 -42c9,-85 125,-490 148,-568 21,-71 46,-126 69,-184l109 -376 -3 -467 -60 -314 -151 -363 0 0c-12,-20 -22,-41 -30,-67l-41 -130 -109 -302c-3,-1 -2,-1 -1,-3l-112 -311 -153 -228 0 0c-61,-41 -65,-139 -390,-225l-122 -85c-43,-44 -3,-26 -77,-34 21,-49 17,-74 -39,-75 -67,-1 -36,40 -47,77 -26,-20 -10,-7 -40,-12 -9,-69 -12,-76 11,-118 1,-2 3,-4 4,-7 24,-45 13,-324 13,-402 0,-8 -1,-35 -3,-41 -1,-4 -1,-6 -3,-10l-15 -28 -252 -9 13 -1525c3,-1 8,-2 13,-3l2 -85 -5 0c-19,-41 -5,-979 -2,-1103l-199 -1c-13,54 -14,217 -15,276 -3,158 -3,716 -13,826 -3,1 -11,2 -23,3l1 36 22 0 -9 1037 -8 0 1 100c2,3 0,9 5,21l-5 0 0 22 1 0 7 75 -7 3 1 175 2 2 -2 142 -325 10 -10 87 -3 0 -3 28 5 0 0 137c-6,0 -14,1 -25,2l-52 371 -1 3 -1 6 -447 223c-20,32 -9,9 -41,36 -3,2 -21,21 -21,21 -8,12 -11,14 -19,39 52,-15 70,-55 123,-86 41,-23 92,-48 151,-18 109,55 64,202 48,300 -38,225 -92,447 -125,670 -16,105 -46,226 -68,332 -22,107 -36,226 -60,337 -135,631 -163,664 -36,1308 35,178 56,439 141,587 1,2 3,4 4,6l12 18c73,106 164,199 306,216 187,22 807,23 1078,8 12,14 -1,-6 8,18l12 30c42,-9 76,-16 113,-31 52,-21 56,-41 103,-49 -7,-20 -7,-16 -12,-24 -34,-54 6,19 -11,-14 39,-12 31,-3 38,-44l-46 25c-24,16 -48,33 -83,40 36,-7 46,-18 66,-36 11,-10 15,-15 26,-25 21,-20 9,-5 30,-30 38,-46 59,-83 80,-149 34,-108 63,-266 83,-378 47,-261 131,-554 131,-831 0,-120 -48,-357 -74,-479 -32,-154 -46,-318 -78,-469 -65,-306 -96,-640 -164,-944 -24,-109 -99,-376 77,-388 196,-12 324,283 391,427 218,471 365,986 397,1525 37,613 -111,896 -228,1415 -53,232 -157,632 -303,804 -33,39 -21,10 -51,25l-84 57c-22,11 -13,7 -26,14 -67,36 -146,45 -235,38 -5,16 0,13 0,17 1,28 20,-10 0,15 -218,2 -1088,15 -1315,5 -48,-2 -94,-3 -139,-6 5,-18 -10,-12 2,-31 11,-19 5,15 26,-20 -27,-10 -47,-19 -69,-26 -169,-48 -135,-72 -178,-87 3,0 20,15 42,26 76,40 119,61 216,74 -7,-107 36,-79 24,-162 25,0 8,-3 24,0 54,12 -3,-9 15,7 -16,-37 -8,-21 -3,-62 4,-33 -1,-33 -75,-60 -2,0 -5,-1 -7,-2 -33,-12 -5,3 -42,-18 -37,-22 5,-7 -33,-20 60,20 98,50 170,62 -46,-69 -76,-39 -160,-97l-115 -94c-23,-15 6,-3 -37,-20zm458 -2034l9 61 59 16c3,1 6,2 9,3 -3,58 -51,117 -67,122 -88,2 -130,-50 -109,-132l65 -3 4 -67 30 0zm-66 -36c-19,41 -2,49 -23,62 -44,-29 -1,-181 79,-179 112,3 111,161 80,181 -30,5 -12,-19 -23,-64l-113 0zm544 -5280l127 -5c19,108 -5,1291 -6,1429l-1 1085c0,103 32,276 -80,276 -119,1 -81,-180 -81,-276 2,-720 16,-1442 31,-2161 2,-105 -9,-253 10,-348zm160 2711l173 5c0,23 5,-2 -18,27 -68,85 -121,165 -304,162 -65,-1 -143,-33 -195,-74 -29,-23 -42,-32 -77,-52 -20,-12 -58,-28 -72,-56l258 -10c21,63 28,106 115,104 93,-2 92,-44 120,-106zm202 36l-1 558 -120 60c-16,10 -19,13 -36,24 -232,150 -475,-66 -557,-68l29 -537c1,-1 3,-3 5,-5 47,25 98,71 146,101 138,83 370,68 471,-63 13,-16 15,-19 26,-33l37 -37zm197 2579l11 68 59 9c4,61 -27,85 -47,123 -88,9 -137,-31 -130,-120l63 -13 10 -67 34 0zm-49 -1987l49 4 -1 351c-232,9 -754,0 -976,-1 -22,-45 -12,-283 -10,-350 191,12 259,127 418,131 110,3 202,-34 287,-90 2,-1 5,-3 6,-4 57,-38 75,-40 146,-47l21 47 58 4c9,-17 13,-32 2,-45zm88 1953l-115 -3 -14 69c-30,-19 -29,-63 -20,-105 7,-32 35,-61 50,-85l91 3c34,47 81,133 28,190l-20 -69zm-231 1449c2,-49 -32,-115 -39,-190 -11,-122 17,-550 19,-705 -15,16 -24,41 -26,78 -10,199 -4,404 -19,602 -42,20 -171,-2 -224,4l-261 3c-1,0 -4,-1 -5,-2l-20 30c17,5 20,2 30,5l35 15c-6,-22 58,-18 74,-17l24 2c1,0 4,0 5,-1l29 -5c41,8 10,22 81,16 62,-5 103,11 231,-9l43 172 -739 -7 59 -167 62 -2c1,0 4,1 6,1l47 -3 3 -40 -106 -7c-9,-66 -1,-205 2,-281 4,-94 2,-194 3,-289l14 -489c3,-39 2,-55 -23,-79 -47,189 -15,413 -20,608 -3,143 9,512 -26,613 -16,-26 -8,-56 -6,-95l42 -727c-34,29 -20,-35 -32,111 -11,134 -58,771 -51,851 -189,-5 -337,10 -448,-143 -51,-71 -100,-349 -110,-463 -17,-190 -32,-598 127,-729 85,-69 134,-39 239,-54 21,86 -30,64 32,151 34,46 59,52 128,41 25,-23 13,-16 32,-38 46,-53 47,-77 52,-153l788 6c-26,-27 -56,-26 -100,-26l-296 -1c-115,3 -281,8 -395,-2l1 -71 790 9c22,123 -27,170 68,289l110 0c39,-72 62,-86 63,-194 29,-3 102,1 133,6 9,2 35,11 49,18l39 20c2,1 5,3 6,4 2,1 5,3 6,4 14,10 59,58 69,78 16,30 20,86 26,121 59,320 -11,505 -61,796 -24,137 -55,207 -166,277 -106,66 -276,45 -394,58zm510 -3231c-213,36 -175,174 -142,355 28,152 58,299 81,456 17,113 159,887 154,921l-302 -3c-42,-82 -72,-106 -149,-97 -57,7 -31,9 -105,101l-770 -14c-28,-10 -22,-91 -132,-93 -57,-2 -79,29 -129,99l-304 -6c-6,-64 224,-1169 254,-1351 14,-86 75,-217 -16,-328 -19,-23 -8,-12 -41,-29 -13,-7 -30,-17 -38,-20 41,-21 146,-45 195,-36 0,89 17,170 80,228 50,45 12,15 37,70 102,21 384,6 510,7 86,1 177,7 259,6 44,0 86,0 130,0 19,1 40,1 60,1l57 -7c41,-11 10,-49 31,-88 29,-55 54,35 101,-229 39,3 168,58 179,57zm-209 1823l-6 -62 315 2c25,51 46,260 59,328 80,412 -34,653 -98,1042 -18,105 -47,220 -70,327 -21,101 -78,194 -150,248 -164,123 -494,75 -718,75 -123,0 -256,2 -378,-2 -121,-5 -202,6 -315,-87 -166,-137 -190,-319 -231,-564 -39,-233 -110,-433 -110,-686 1,-278 48,-441 103,-691l327 -7 -6 69c-106,6 -198,-11 -279,68 -114,110 -128,431 -126,591 1,127 16,202 34,323 33,217 81,375 270,436 165,53 488,27 681,27 237,0 658,36 827,-68l26 -15c115,-65 133,-234 154,-350 36,-196 82,-430 50,-644 -18,-123 -6,-191 -83,-275 -87,-93 -143,-69 -276,-85z"/>
 </g>
</svg>