<svg height="512pt" viewBox="0 0 512 512" width="512pt" xmlns="http://www.w3.org/2000/svg"><path d="m512 256c0 141.386719-114.613281 256-256 256s-256-114.613281-256-256 114.613281-256 256-256 256 114.613281 256 256zm0 0" fill="#ffe361"/><path d="m511.746094 267.042969-133.394532-133.394531-84.867187-46.648438-26-27-22.96875 23.351562-161.136719 160.722657-23.378906 23.410156 27.253906 26.996094 46.394532 83.871093 133.394531 133.394532c132.597656-5.628906 239.074219-112.105469 244.703125-244.703125zm0 0" fill="#ffc454"/><path d="m256 94.453125c89.21875 0 161.546875 72.328125 161.546875 161.546875s-72.328125 161.546875-161.546875 161.546875l-104.753906-161.546875zm0 0" fill="#fff1b0"/><path d="m256 94.453125v323.09375c-89.21875 0-161.546875-72.328125-161.546875-161.546875s72.328125-161.546875 161.546875-161.546875zm0 0" fill="#fff"/><path d="m256 164.125c50.738281 0 91.875 41.136719 91.875 91.875s-41.136719 91.875-91.875 91.875l-59.574219-91.875zm0 0" fill="#2962f2"/><path d="m256 164.125v183.75c-50.738281 0-91.875-41.136719-91.875-91.875s41.136719-91.875 91.875-91.875zm0 0" fill="#5585ff"/><path d="m256 198.578125c31.710938 0 57.421875 25.710937 57.421875 57.421875s-25.710937 57.421875-57.421875 57.421875l-37.234375-57.421875zm0 0" fill="#ff5e30"/><path d="m256 198.578125v114.84375c-31.710938 0-57.421875-25.710937-57.421875-57.421875s25.710937-57.421875 57.421875-57.421875zm0 0" fill="#ff833d"/><path d="m256 233.03125c12.683594 0 22.96875 10.285156 22.96875 22.96875s-10.285156 22.96875-22.96875 22.96875l-14.894531-22.96875zm0 0" fill="#ffe361"/><path d="m256 233.03125v45.9375c-12.683594 0-22.96875-10.285156-22.96875-22.96875s10.285156-22.96875 22.96875-22.96875zm0 0" fill="#fff1b0"/><path d="m256 429.03125v-22.96875c82.746094 0 150.0625-67.316406 150.0625-150.0625s-67.316406-150.0625-150.0625-150.0625v-22.96875c46.21875 0 89.671875 18 122.351562 50.679688 32.679688 32.679687 50.679688 76.132812 50.679688 122.351562s-18 89.671875-50.679688 122.351562c-32.679687 32.679688-76.132812 50.679688-122.351562 50.679688zm0 0" fill="#0a1326"/><path d="m256 429.03125c-46.21875 0-89.671875-18-122.351562-50.679688-32.679688-32.679687-50.679688-76.132812-50.679688-122.351562s18-89.671875 50.679688-122.351562c32.679687-32.679688 76.132812-50.679688 122.351562-50.679688v22.96875c-82.746094 0-150.0625 67.316406-150.0625 150.0625s67.316406 150.0625 150.0625 150.0625zm0 0" fill="#202940"/><path d="m141.15625 265.953125-81.15625 1.53125v-22.96875l81.15625-1.53125zm0 0" fill="#202940"/><path d="m370.84375 244.515625h81.15625v22.96875h-81.15625zm0 0" fill="#0a1326"/><path d="m244.515625 370.84375h22.96875v81.15625h-22.96875zm0 0" fill="#202940"/><path d="m244.515625 60h22.96875v81.15625h-22.96875zm0 0" fill="#202940"/><g fill="#0a1326"><path d="m256.085938 370.84375h11.398437v81.15625h-11.398437zm0 0"/><path d="m256.085938 60h11.398437v81.15625h-11.398437zm0 0"/></g></svg>