<?xml version="1.0" encoding="UTF-8"?>
<!DOCTYPE svg PUBLIC "-//W3C//DTD SVG 1.1//EN" "http://www.w3.org/Graphics/SVG/1.1/DTD/svg11.dtd">
<!-- Creator: CorelDRAW X7 -->
<svg xmlns="http://www.w3.org/2000/svg" xml:space="preserve" width="178.847mm" height="143.075mm" version="1.1" style="shape-rendering:geometricPrecision; text-rendering:geometricPrecision; image-rendering:optimizeQuality; fill-rule:evenodd; clip-rule:evenodd"
viewBox="0 0 16254 13003"
 xmlns:xlink="http://www.w3.org/1999/xlink">
 <defs>
  <style type="text/css">
   <![CDATA[
    .str8 {stroke:blue;stroke-width:6.92521;stroke-opacity:0.200000}
    .str1 {stroke:lime;stroke-width:90.8821}
    .str2 {stroke:red;stroke-width:90.8821}
    .str6 {stroke:#FF6600;stroke-width:90.8821}
    .str5 {stroke:yellow;stroke-width:90.8821}
    .str7 {stroke:red;stroke-width:181.764}
    .str3 {stroke:blue;stroke-width:454.41}
    .str4 {stroke:#9900CC;stroke-width:454.41}
    .str9 {stroke:black;stroke-width:18.1764}
    .str0 {stroke:white;stroke-width:18.1764}
    .fil1 {fill:none}
    .fil0 {fill:#E6E6E6}
    .fil3 {fill:red}
    .fil2 {fill:black;fill-rule:nonzero}
    .fil7 {fill:#FF6600;fill-rule:nonzero}
    .fil6 {fill:yellow;fill-rule:nonzero}
    .fil4 {fill:blue;fill-opacity:0.200000}
    .fil5 {fill:#9900CC;fill-opacity:0.200000}
   ]]>
  </style>
 </defs>
 <g id="Layer_x0020_1">
  <metadata id="CorelCorpID_0Corel-Layer"/>
  <rect class="fil0 str0" x="9" y="9" width="16236" height="12985"/>
  <line class="fil1 str1" x1="1356" y1="2798" x2="14591" y2= "2798" />
  <line class="fil1 str2" x1="6963" y1="2010" x2="6963" y2= "8406" />
  <line class="fil1 str2" x1="8675" y1="2010" x2="8675" y2= "8406" />
  <line class="fil1 str2" x1="13888" y1="2010" x2="13888" y2= "8406" />
  <line class="fil1 str2" x1="6963" y1="2010" x2="6963" y2= "8406" />
  <g>
   <path class="fil2" d="M1401 1896l0 7416 -91 0 0 -7416 91 0zm-7 -95l-76 49 76 0 -233 359 -76 -50 233 -358 76 0zm0 0l-76 0 38 -59 38 59zm194 383l-38 25 -232 -359 76 -49 232 358 -38 25z"/>
  </g>
  <g>
   <path class="fil2" d="M14928 8451l-14419 0 0 -91 14419 0 0 91zm95 -7l-50 -76 0 76 -358 -232 49 -77 359 233 0 76zm0 0l0 -76 59 38 -59 38zm-383 195l-25 -39 358 -232 50 76 -359 233 -24 -38z"/>
  </g>
  <polyline class="fil1 str3" points="1356,8406 6963,4174 8675,3828 "/>
  <polyline class="fil1 str4" points="6963,5972 8675,5905 13888,2808 "/>
  <polyline class="fil1 str5" points="1433,8266 6917,4127 8618,3746 8675,5766 13888,2726 "/>
  <polyline class="fil1 str6" points="1433,8430 6917,4290 7021,6054 8675,5929 13888,2890 "/>
  <circle class="fil3 str7" cx="6963" cy="4174" r="58"/>
  <circle class="fil3 str7" cx="8675" cy="3828" r="58"/>
  <circle class="fil3 str7" cx="8675" cy="5905" r="58"/>
  <circle class="fil3 str7" cx="6963" cy="5972" r="58"/>
  <path class="fil2" d="M8985 3766l211 -551 80 0 225 551 -83 0 -64 -167 -232 0 -60 167 -77 0zm158 -226l188 0 -57 -153c-18,-46 -31,-84 -40,-115 -7,36 -18,72 -30,106l-61 162z"/>
  <path class="fil2" d="M8933 6652l0 -551 206 0c42,0 76,5 102,17 25,11 45,28 59,51 15,23 22,48 22,73 0,23 -6,46 -19,66 -13,21 -32,38 -58,51 34,9 59,26 77,50 18,23 27,51 27,83 0,26 -6,50 -17,72 -10,22 -24,39 -40,51 -16,12 -36,22 -60,28 -24,6 -54,9 -89,9l-210 0zm73 -319l119 0c32,0 55,-3 69,-7 19,-5 33,-15 42,-27 10,-13 14,-29 14,-49 0,-18 -4,-34 -13,-48 -9,-14 -21,-24 -37,-29 -17,-5 -45,-7 -84,-7l-110 0 0 167zm0 254l137 0c24,0 40,-1 50,-2 16,-3 30,-8 42,-15 11,-7 20,-18 28,-31 7,-14 10,-29 10,-47 0,-20 -5,-38 -15,-54 -11,-15 -26,-25 -44,-32 -19,-6 -46,-9 -81,-9l-127 0 0 190z"/>
  <path class="fil2" d="M6641 6574l73 19c-15,59 -43,105 -82,136 -40,32 -89,48 -146,48 -59,0 -107,-13 -145,-37 -37,-24 -65,-59 -84,-105 -20,-46 -29,-95 -29,-147 0,-58 10,-108 32,-150 22,-43 53,-75 94,-98 40,-22 85,-33 133,-33 55,0 102,14 139,42 38,28 64,68 79,118l-72 17c-13,-40 -31,-69 -55,-87 -25,-18 -55,-28 -92,-28 -42,0 -78,11 -106,31 -28,20 -48,47 -60,82 -11,34 -17,69 -17,105 0,47 7,88 20,123 14,35 35,61 64,78 29,18 60,26 93,26 41,0 75,-12 103,-35 29,-24 48,-59 58,-105z"/>
  <path class="fil2" d="M6322 3997l0 -551 190 0c42,0 75,3 98,8 31,7 58,21 81,40 29,24 50,56 65,94 14,38 21,82 21,131 0,42 -5,79 -14,111 -10,32 -23,59 -38,80 -15,21 -32,38 -50,50 -18,12 -40,22 -66,28 -26,6 -55,9 -88,9l-199 0zm73 -64l117 0c37,0 65,-4 86,-11 20,-6 37,-16 49,-28 17,-17 31,-41 40,-70 10,-29 15,-65 15,-106 0,-58 -10,-102 -28,-133 -19,-32 -42,-52 -69,-63 -20,-7 -51,-11 -95,-11l-115 0 0 422z"/>
  <polygon class="fil4" points="1356,9752 8675,9752 8675,8406 1356,8406 "/>
  <polygon class="fil5" points="13888,10426 8675,10426 8675,9079 13888,9079 "/>
  <polygon class="fil5" points="13888,11772 6963,11772 6963,10426 13888,10426 "/>
  <polygon class="fil4 str8" points="1356,12446 6963,12446 6963,11099 1356,11099 "/>
  <rect class="fil1 str9" x="1356" y="8406" width="12533" height="2020"/>
  <rect class="fil1 str9" x="1356" y="10426" width="12533" height="2020"/>
  <g>
   <path class="fil6" d="M12523 9358l-9927 0 0 -91 9927 0 0 91zm95 -8l-49 -76 0 76 -359 -232 50 -77 358 233 0 76zm0 0l0 -76 59 38 -59 38zm-383 195l-25 -38 359 -233 49 76 -358 233 -25 -38z"/>
  </g>
  <g>
   <path class="fil7" d="M2721 11498l9927 0 0 91 -9927 0 0 -91zm-95 7l49 77 0 -77 359 233 -50 76 -358 -232 0 -77zm0 0l0 77 -59 -38 59 -39zm383 -194l25 38 -359 233 -49 -77 358 -232 25 38z"/>
  </g>
  <path class="fil6" d="M4224 8994l0 -64 233 0 0 204c-36,28 -73,50 -111,64 -38,14 -77,22 -117,22 -54,0 -103,-12 -147,-35 -45,-23 -78,-57 -100,-101 -23,-43 -34,-92 -34,-146 0,-54 11,-104 33,-151 23,-46 55,-80 97,-103 42,-22 91,-34 145,-34 40,0 76,7 108,20 33,13 58,30 76,53 18,24 32,54 42,91l-66 18c-8,-28 -19,-50 -31,-66 -12,-17 -30,-29 -52,-39 -23,-10 -48,-14 -76,-14 -33,0 -62,5 -87,15 -24,10 -43,23 -58,40 -15,16 -27,35 -35,54 -14,35 -21,72 -21,112 0,49 9,90 25,123 17,33 42,58 74,74 32,16 67,24 103,24 31,0 62,-6 92,-18 30,-13 53,-26 69,-40l0 -103 -162 0z"/>
  <path id="1" class="fil6" d="M4829 9081l70 9c-11,41 -32,73 -61,95 -30,23 -68,34 -114,34 -59,0 -105,-18 -139,-54 -34,-36 -51,-86 -51,-151 0,-67 17,-119 52,-156 34,-37 79,-55 134,-55 53,0 97,18 130,54 34,36 51,87 51,153 0,4 0,10 0,18l-298 0c3,44 15,77 37,101 23,23 50,34 84,34 24,0 45,-6 63,-19 17,-13 31,-34 42,-63zm-222 -108l222 0c-3,-34 -11,-59 -25,-76 -22,-26 -50,-39 -84,-39 -31,0 -57,10 -78,31 -21,21 -33,49 -35,84z"/>
  <path id="2" class="fil6" d="M5245 9160c-25,22 -49,37 -73,46 -23,9 -48,13 -74,13 -44,0 -78,-11 -102,-32 -23,-21 -35,-49 -35,-82 0,-20 5,-37 13,-54 9,-16 21,-28 35,-38 15,-10 31,-17 49,-22 13,-4 34,-7 60,-11 55,-6 95,-14 121,-23 0,-9 1,-15 1,-17 0,-28 -7,-47 -20,-58 -17,-16 -43,-23 -77,-23 -32,0 -55,5 -70,17 -16,11 -27,30 -34,59l-66 -9c6,-29 16,-52 29,-69 14,-17 34,-31 60,-40 26,-10 57,-14 91,-14 34,0 62,4 84,12 21,8 37,18 47,30 10,12 17,27 21,46 2,12 3,32 3,62l0 90c0,63 2,102 4,119 3,17 9,33 17,48l-71 0c-7,-14 -11,-31 -13,-50zm-5 -150c-25,10 -62,19 -111,26 -28,4 -48,8 -59,13 -12,5 -21,13 -27,22 -6,10 -10,20 -10,32 0,18 7,33 21,45 14,12 34,18 60,18 26,0 49,-6 70,-17 20,-12 35,-27 44,-47 8,-15 11,-37 11,-67l1 -25z"/>
  <path id="3" class="fil6" d="M5411 9210l0 -399 61 0 0 61c16,-28 30,-47 43,-56 13,-9 28,-13 44,-13 23,0 46,7 69,21l-24 62c-16,-9 -33,-13 -49,-13 -15,0 -28,4 -40,13 -11,9 -20,21 -25,37 -7,24 -11,50 -11,79l0 208 -68 0z"/>
  <path id="4" class="fil6" d="M6118 9210l-68 0 0 -431c-16,16 -38,31 -64,47 -27,15 -51,27 -72,35l0 -66c38,-17 71,-39 100,-64 28,-26 48,-50 60,-74l44 0 0 553z"/>
  <polygon id="5" class="fil6" points="6497,9045 6497,8977 6706,8977 6706,9045 "/>
  <polygon id="6" class="fil6" points="6753,9045 6753,8977 6962,8977 6962,9045 "/>
  <polygon id="7" class="fil6" points="7392,8970 7029,9126 7029,9058 7316,8938 7029,8820 7029,8753 7392,8906 "/>
  <path id="8" class="fil6" d="M8036 9146l0 64 -365 0c0,-16 2,-32 8,-47 9,-24 24,-49 45,-73 21,-24 50,-52 88,-83 60,-49 101,-88 122,-117 21,-28 32,-56 32,-81 0,-27 -10,-50 -29,-68 -19,-18 -45,-28 -75,-28 -33,0 -59,10 -79,30 -20,19 -29,46 -30,80l-69 -7c5,-51 23,-91 54,-118 31,-27 73,-41 125,-41 53,0 95,15 126,44 31,30 46,66 46,109 0,22 -5,44 -14,65 -9,22 -24,44 -45,68 -21,23 -55,56 -104,97 -40,34 -67,57 -78,69 -12,12 -21,24 -29,37l271 0z"/>
  <path class="fil7" d="M7679 11091l0 -65 233 0 0 205c-35,28 -72,50 -110,64 -39,14 -78,21 -118,21 -54,0 -103,-11 -147,-34 -44,-23 -78,-57 -100,-101 -23,-44 -34,-93 -34,-147 0,-53 11,-103 34,-150 22,-46 54,-81 96,-103 42,-23 91,-34 146,-34 39,0 76,6 108,19 32,13 57,31 75,54 19,23 33,53 42,91l-66 17c-8,-27 -18,-50 -31,-66 -12,-16 -29,-29 -52,-38 -23,-10 -48,-15 -76,-15 -33,0 -62,5 -86,16 -24,10 -44,23 -59,40 -15,16 -26,35 -35,54 -14,34 -21,71 -21,111 0,50 9,91 26,124 17,33 41,58 73,74 33,16 67,24 103,24 32,0 63,-6 93,-19 30,-12 52,-25 68,-39l0 -103 -162 0z"/>
  <path id="1" class="fil7" d="M8284 11178l70 9c-11,41 -31,72 -61,95 -30,22 -68,34 -114,34 -58,0 -105,-18 -139,-54 -34,-36 -51,-86 -51,-151 0,-67 17,-119 52,-156 34,-37 79,-56 134,-56 53,0 97,18 131,55 33,36 50,87 50,153 0,4 0,10 0,18l-298 0c3,44 15,77 38,100 22,24 50,35 83,35 25,0 46,-6 63,-19 18,-13 32,-34 42,-63zm-222 -109l223 0c-3,-33 -12,-58 -26,-75 -21,-26 -49,-39 -83,-39 -32,0 -58,10 -79,31 -21,21 -32,49 -35,83z"/>
  <path id="2" class="fil7" d="M8700 11257c-25,22 -49,37 -72,45 -23,9 -48,14 -75,14 -44,0 -78,-11 -101,-32 -24,-22 -36,-49 -36,-82 0,-20 5,-38 14,-54 9,-16 20,-29 35,-38 14,-10 30,-18 48,-23 14,-3 34,-6 61,-10 54,-6 95,-14 121,-23 0,-9 0,-15 0,-18 0,-27 -6,-46 -19,-58 -18,-15 -43,-22 -78,-22 -31,0 -55,5 -70,16 -15,12 -27,31 -34,60l-66 -10c6,-28 16,-51 30,-68 14,-18 34,-31 60,-41 26,-9 56,-14 90,-14 35,0 62,4 84,12 21,9 37,19 47,31 10,12 17,27 21,46 2,11 3,32 3,62l0 90c0,63 2,102 5,119 2,17 8,33 16,48l-71 0c-6,-14 -11,-31 -13,-50zm-5 -150c-25,10 -62,19 -111,26 -28,4 -48,8 -59,13 -12,5 -21,12 -27,22 -6,9 -9,20 -9,32 0,18 7,33 20,45 14,12 34,18 60,18 26,0 49,-6 70,-17 20,-12 35,-27 45,-47 7,-15 11,-38 11,-67l0 -25z"/>
  <path id="3" class="fil7" d="M8867 11307l0 -399 60 0 0 61c16,-28 30,-47 44,-56 13,-9 27,-14 43,-14 23,0 46,8 70,22l-24 62c-17,-9 -33,-14 -50,-14 -14,0 -28,5 -39,14 -12,9 -20,21 -25,37 -8,24 -12,50 -12,79l0 208 -67 0z"/>
  <path id="4" class="fil7" d="M9674 11243l0 64 -365 0c-1,-16 2,-32 8,-47 9,-25 24,-49 45,-73 21,-24 50,-52 88,-83 60,-49 101,-88 122,-117 21,-29 32,-56 32,-81 0,-27 -10,-50 -29,-68 -19,-19 -45,-28 -75,-28 -33,0 -59,10 -79,29 -20,20 -29,47 -30,81l-69 -7c5,-52 23,-91 54,-118 31,-27 73,-41 125,-41 53,0 95,15 126,44 31,29 46,66 46,109 0,22 -5,44 -14,65 -9,22 -24,44 -45,68 -21,23 -55,55 -104,97 -40,34 -67,57 -78,69 -12,12 -21,24 -29,37l271 0z"/>
  <polygon id="5" class="fil7" points="9952,11142 9952,11074 10162,11074 10162,11142 "/>
  <polygon id="6" class="fil7" points="10208,11142 10208,11074 10418,11074 10418,11142 "/>
  <polygon id="7" class="fil7" points="10847,11066 10484,11223 10484,11155 10771,11035 10484,10917 10484,10849 10847,11003 "/>
  <path id="8" class="fil7" d="M11390 11307l-67 0 0 -431c-17,16 -38,31 -65,47 -26,15 -50,27 -71,35l0 -66c38,-17 71,-39 99,-64 29,-26 49,-50 61,-74l43 0 0 553z"/>
  <path class="fil2" d="M617 2669c0,-39 10,-73 30,-100 20,-28 49,-41 86,-41 35,0 64,12 86,36 23,25 35,61 35,109 0,47 -12,83 -35,108 -23,25 -51,37 -85,37 -33,0 -61,-12 -83,-37 -22,-25 -34,-62 -34,-112zm118 -95c-16,0 -30,8 -42,22 -11,15 -16,41 -16,80 0,35 5,60 17,74 11,14 25,21 41,21 17,0 31,-7 43,-21 11,-15 16,-41 16,-79 0,-36 -5,-61 -17,-75 -11,-14 -25,-22 -42,-22zm1 534l300 -580 55 0 -299 580 -56 0zm237 -150c0,-39 10,-73 30,-100 19,-27 48,-41 86,-41 35,0 63,12 86,37 23,24 34,61 34,108 0,47 -11,83 -34,108 -23,25 -52,38 -86,38 -33,0 -61,-13 -83,-38 -22,-24 -33,-62 -33,-112zm118 -94c-17,0 -31,7 -42,21 -11,15 -17,42 -17,80 0,35 6,60 17,74 11,15 25,22 42,22 17,0 31,-7 42,-22 11,-14 17,-41 17,-79 0,-36 -6,-60 -17,-75 -11,-14 -25,-21 -42,-21z"/>
  <path class="fil2" d="M605 9010c0,-65 7,-118 20,-157 14,-40 33,-71 60,-92 26,-22 59,-32 99,-32 30,0 56,6 78,18 22,11 41,29 55,51 15,22 26,50 34,82 9,32 13,76 13,130 0,65 -7,117 -20,157 -13,40 -33,70 -60,92 -26,21 -59,32 -100,32 -53,0 -94,-19 -125,-56 -36,-47 -54,-121 -54,-225zm69 0c0,91 11,151 32,181 21,30 47,45 78,45 31,0 58,-15 79,-45 21,-30 31,-90 31,-181 0,-90 -10,-151 -31,-180 -21,-30 -48,-45 -79,-45 -31,0 -56,13 -75,39 -23,34 -35,96 -35,186z"/>
  <path class="fil2" d="M14396 9282l-68 0 0 -431c-16,15 -38,31 -64,46 -26,16 -50,28 -71,35l0 -65c38,-18 71,-39 99,-65 28,-25 48,-49 60,-73l44 0 0 553z"/>
  <path id="1" class="fil2" d="M14570 9010c0,-65 7,-118 20,-157 13,-40 33,-71 60,-92 26,-22 59,-32 99,-32 30,0 56,6 78,18 22,11 41,29 55,51 15,22 26,50 34,82 8,32 12,76 12,130 0,65 -6,117 -19,157 -14,40 -34,70 -60,92 -26,21 -60,32 -100,32 -53,0 -94,-19 -125,-56 -36,-47 -54,-121 -54,-225zm69 0c0,91 11,151 32,181 21,30 47,45 78,45 31,0 57,-15 79,-45 21,-30 31,-90 31,-181 0,-90 -10,-151 -31,-180 -22,-30 -48,-45 -80,-45 -31,0 -56,13 -74,39 -23,34 -35,96 -35,186z"/>
  <path id="2" class="fil2" d="M14998 9010c0,-65 7,-118 20,-157 13,-40 33,-71 60,-92 26,-22 59,-32 99,-32 30,0 56,6 78,18 22,11 41,29 55,51 14,22 26,50 34,82 8,32 12,76 12,130 0,65 -6,117 -19,157 -14,40 -34,70 -60,92 -26,21 -60,32 -100,32 -53,0 -95,-19 -125,-56 -36,-47 -54,-121 -54,-225zm69 0c0,91 11,151 32,181 21,30 47,45 78,45 31,0 57,-15 78,-45 22,-30 32,-90 32,-181 0,-90 -10,-151 -32,-180 -21,-30 -47,-45 -79,-45 -31,0 -56,13 -74,39 -23,34 -35,96 -35,186z"/>
  <path class="fil2" d="M528 1587l0 -551 110 0 130 390c12,36 21,63 26,81 7,-20 16,-49 30,-88l132 -383 98 0 0 551 -70 0 0 -461 -161 461 -65 0 -159 -470 0 470 -71 0z"/>
  <path id="1" class="fil2" d="M1137 1387c0,-74 21,-129 62,-164 34,-30 76,-44 125,-44 55,0 100,18 135,54 35,35 52,85 52,148 0,51 -8,92 -23,121 -15,29 -38,52 -67,69 -30,16 -62,24 -97,24 -56,0 -101,-18 -135,-54 -35,-35 -52,-87 -52,-154zm69 0c0,51 12,89 34,114 22,26 50,39 84,39 34,0 62,-13 84,-39 23,-25 34,-64 34,-116 0,-49 -11,-87 -34,-112 -22,-25 -50,-38 -84,-38 -34,0 -62,12 -84,38 -22,25 -34,63 -34,114z"/>
  <path id="2" class="fil2" d="M1737 1526l10 60c-19,4 -36,6 -51,6 -25,0 -44,-4 -57,-12 -14,-8 -23,-18 -29,-30 -5,-13 -8,-40 -8,-80l0 -231 -50 0 0 -52 50 0 0 -99 68 -40 0 139 67 0 0 52 -67 0 0 234c0,20 1,32 3,38 3,5 6,10 12,13 5,3 13,5 23,5 7,0 17,-1 29,-3z"/>
  <path id="3" class="fil2" d="M1779 1387c0,-74 20,-129 62,-164 34,-30 76,-44 125,-44 55,0 100,18 135,54 34,35 52,85 52,148 0,51 -8,92 -23,121 -16,29 -38,52 -68,69 -29,16 -61,24 -96,24 -56,0 -101,-18 -135,-54 -35,-35 -52,-87 -52,-154zm69 0c0,51 11,89 34,114 22,26 50,39 84,39 34,0 62,-13 84,-39 22,-25 34,-64 34,-116 0,-49 -12,-87 -34,-112 -23,-25 -51,-38 -84,-38 -34,0 -62,12 -84,38 -23,25 -34,63 -34,114z"/>
  <path id="4" class="fil2" d="M2231 1587l0 -400 61 0 0 61c16,-28 30,-47 43,-56 14,-9 28,-13 44,-13 23,0 46,7 69,21l-24 63c-16,-10 -33,-14 -49,-14 -15,0 -28,4 -40,13 -11,9 -20,21 -25,37 -7,24 -11,50 -11,79l0 209 -68 0z"/>
  <path class="fil2" d="M13575 7780l66 -9c1,43 9,72 23,87 14,16 34,24 58,24 19,0 34,-5 48,-13 13,-9 22,-20 27,-34 5,-15 7,-38 7,-69l0 -380 73 0 0 375c0,46 -5,82 -16,107 -11,26 -29,45 -53,58 -24,13 -53,20 -85,20 -48,0 -85,-14 -111,-42 -26,-27 -38,-69 -37,-124z"/>
  <path id="1" class="fil2" d="M13963 7737c0,-73 20,-128 62,-164 34,-29 76,-44 125,-44 55,0 100,18 135,54 34,36 52,85 52,149 0,51 -8,91 -23,121 -16,29 -38,52 -68,68 -29,16 -61,24 -96,24 -56,0 -101,-17 -135,-53 -35,-36 -52,-88 -52,-155zm69 0c0,51 11,90 34,115 22,25 50,38 84,38 34,0 62,-13 84,-38 22,-26 34,-65 34,-117 0,-49 -12,-86 -34,-112 -23,-25 -51,-38 -84,-38 -34,0 -62,13 -84,38 -23,25 -34,63 -34,114z"/>
  <path id="2" class="fil2" d="M14413 8090l-8 -62c15,4 28,6 39,6 15,0 27,-3 36,-8 9,-5 17,-12 23,-21 4,-7 11,-23 20,-50 2,-4 4,-9 6,-17l-151 -400 72 0 83 230c11,29 21,60 30,92 7,-30 17,-60 27,-90l86 -232 67 0 -151 406c-16,44 -29,74 -38,90 -12,22 -26,39 -41,49 -16,10 -35,16 -56,16 -13,0 -28,-3 -44,-9z"/>
  <path id="3" class="fil2" d="M14801 8090l0 -552 62 0 0 52c14,-20 30,-35 49,-46 18,-10 40,-15 66,-15 34,0 64,9 90,26 26,18 46,43 59,74 14,32 20,67 20,105 0,41 -7,78 -22,110 -14,33 -36,58 -64,75 -27,18 -57,26 -87,26 -23,0 -43,-4 -61,-14 -18,-9 -33,-21 -44,-36l0 195 -68 0zm62 -350c0,51 10,89 31,113 20,25 46,37 75,37 30,0 56,-13 77,-38 21,-25 32,-65 32,-118 0,-51 -10,-89 -31,-114 -21,-25 -46,-38 -75,-38 -29,0 -54,14 -76,40 -22,27 -33,66 -33,118z"/>
  <path id="4" class="fil2" d="M15490 7887c-25,21 -50,36 -73,45 -23,9 -48,13 -75,13 -43,0 -77,-10 -101,-32 -23,-21 -35,-48 -35,-81 0,-20 4,-38 13,-54 9,-16 21,-29 35,-39 15,-9 31,-17 49,-22 13,-3 33,-7 60,-10 55,-6 95,-14 121,-23 0,-9 0,-15 0,-18 0,-27 -6,-47 -19,-58 -17,-15 -43,-23 -77,-23 -32,0 -56,6 -71,17 -15,11 -26,31 -33,59l-67 -9c6,-28 16,-51 30,-69 14,-17 34,-30 60,-40 26,-9 57,-14 91,-14 34,0 62,4 83,12 22,8 37,18 47,30 10,13 17,28 22,47 2,11 3,32 3,62l0 90c0,62 1,102 4,119 3,17 8,33 17,48l-71 0c-7,-14 -11,-31 -13,-50zm-6 -150c-24,10 -61,18 -110,25 -28,4 -48,9 -60,14 -11,5 -20,12 -26,22 -7,9 -10,20 -10,32 0,17 7,32 21,44 13,12 33,18 60,18 26,0 49,-5 69,-17 21,-11 36,-27 45,-46 7,-15 11,-38 11,-68l0 -24z"/>
  <path id="5" class="fil2" d="M15915 7937l0 -51c-26,40 -63,59 -112,59 -32,0 -61,-8 -87,-26 -27,-17 -48,-42 -63,-73 -14,-32 -21,-68 -21,-108 0,-40 6,-76 19,-109 14,-32 34,-57 60,-74 27,-17 56,-26 89,-26 24,0 46,5 64,15 19,11 34,24 46,40l0 -198 68 0 0 551 -63 0zm-214 -199c0,51 11,89 32,114 22,25 47,38 77,38 29,0 54,-12 75,-36 21,-24 31,-61 31,-111 0,-54 -10,-94 -31,-120 -21,-25 -48,-38 -78,-38 -31,0 -56,12 -76,37 -20,24 -30,63 -30,116z"/>
 </g>
</svg>