<?xml version="1.0" encoding="UTF-8"?>
<!DOCTYPE svg PUBLIC "-//W3C//DTD SVG 1.1//EN" "http://www.w3.org/Graphics/SVG/1.1/DTD/svg11.dtd">
<!-- Creator: CorelDRAW X7 -->
<svg xmlns="http://www.w3.org/2000/svg" xml:space="preserve" width="247px" height="247px" version="1.1" style="shape-rendering:geometricPrecision; text-rendering:geometricPrecision; image-rendering:optimizeQuality; fill-rule:evenodd; clip-rule:evenodd"
viewBox="0 0 587 587"
 xmlns:xlink="http://www.w3.org/1999/xlink">
 <defs>
  <style type="text/css">
   <![CDATA[
    .fil1 {fill:#FFED00}
    .fil0 {fill:#FCBD0B}
   ]]>
  </style>
   <mask id="id0">
  <radialGradient id="id1" gradientUnits="userSpaceOnUse" cx="-0" cy="0" r="0" fx="-0" fy="0">
   <stop offset="0" style="stop-opacity:0.270588; stop-color:white"/>
   <stop offset="1" style="stop-opacity:0; stop-color:white"/>
  </radialGradient>
    <rect style="fill:url(#id1)" x="-3" y="-3" width="592" height="592"/>
   </mask>
 </defs>
 <g id="Layer_x0020_1">
  <metadata id="CorelCorpID_0Corel-Layer"/>
  <path class="fil0" d="M302 407c-14,-32 -20,-74 -21,-115 0,-33 6,-95 22,-118 72,-1 171,51 172,115 1,69 -101,114 -173,118zm-217 -118l-1 30c16,-2 128,-37 137,-43l2 -30 -138 43zm2 58l-2 35 139 -42 -2 -30c-38,5 -106,40 -135,37zm71 -145l-73 23 -1 31 144 -43 8 -33 -78 22zm-25 195l-48 16 -2 30c17,-2 138,-39 152,-47l-7 -26c-25,1 -66,22 -95,27zm371 -128c-6,-14 -7,-21 -15,-35 -9,-14 -17,-18 -20,-27 -12,-5 -24,-17 -38,-26 -32,-18 -117,-51 -146,-31 -42,28 -51,278 15,286 25,3 79,-13 100,-22 65,-28 109,-67 104,-145z"/>
  <path class="fil1" style="mask:url(#id0)" d="M293 0c162,0 294,131 294,293 0,162 -132,294 -294,294 -162,0 -293,-132 -293,-294 0,-162 131,-293 293,-293z"/>
 </g>
</svg>
