<svg id="Layer_1" enable-background="new 0 0 512 512" height="512" viewBox="0 0 512 512" width="512" xmlns="http://www.w3.org/2000/svg"><g><g><g><path d="m512 256c0 56.5-18.31 108.72-49.31 151.06-46.57 63.62-121.81 39.523-206.69 39.523s-160.12 24.097-206.69-39.523c-31-42.34-49.31-94.56-49.31-151.06 0-141.38 114.62-256 256-256s256 114.62 256 256z" fill="#584b66"/></g></g><path d="m256 446.583c84.88 0 160.12 24.097 206.69-39.523 31-42.34 49.31-94.56 49.31-151.06 0-4.817-.145-9.599-.408-14.351l-175.692-175.692-179.154 153.961 44.186 44.484c4.305 15.704 12.485 17.802 24.068 28.265l11.141 86.664-186.831 27.729c46.57 63.62 121.81 39.523 206.69 39.523z" fill="#3d3449"/><g><path d="m199.97 260.488h112.06v118.84h-112.06z" fill="#f7a969"/><path d="m256 260.491h56.03v118.84h-56.03z" fill="#ea8d4e"/><path d="m377.437 446.586h-242.874l31.107-114.294h180.66z" fill="#ffbf85"/><path d="m256 332.292h121.44v114.291h-121.44z" fill="#f7a969"/><path d="m462.69 407.06c-46.57 63.62-121.81 104.94-206.69 104.94s-160.12-41.32-206.69-104.94c1.28-41.51 35.34-74.77 77.16-74.77h39.2l90.33 90.7 90.33-90.7h39.21c41.83 0 75.88 33.25 77.15 74.77z" fill="#4cd3aa"/><path d="m462.69 407.06c-46.57 63.62-121.81 104.94-206.69 104.94v-89.01l90.33-90.7h39.21c41.83 0 75.88 33.25 77.15 74.77z" fill="#26b290"/><path d="m349.62 151.149c-3.955-60.043-52.523-82.233-93.62-82.233s-89.666 22.19-93.62 82.233c-10.628 2.055-18.177 15.995-16.988 27.265l1.822 25.648c1.247 11.835 11.65 20.476 23.115 19.19l1.977-.214c23.485 63.063 60.316 69.638 83.694 73.33 23.378-3.692 60.209-10.267 83.694-73.33l1.977.214c11.465 1.286 21.868-7.354 23.115-19.19l1.822-25.648c1.189-11.27-6.36-25.21-16.988-27.265z" fill="#ffbf85"/><path d="m366.609 178.414-1.822 25.648c-1.247 11.835-11.65 20.476-23.115 19.19l-1.977-.214c-8.027 21.528-17.602 36.48-27.664 46.971-19.404 20.242-40.63 23.924-56.03 26.359v-227.452c41.097 0 89.665 22.19 93.62 82.233 10.627 2.055 18.176 15.995 16.988 27.265z" fill="#f7a969"/><path d="m275.826 204.523c-11.431-9.719-28.221-9.719-39.652 0-12.748 10.838-28.758 17.094-45.477 17.771l-18.392.744 1.233 7.414c6.705 40.322 41.586 69.882 82.461 69.882 41.791-2.318 76.381-33.318 83.247-74.606l.447-2.69-18.392-.744c-16.717-.677-32.727-6.933-45.475-17.771z" fill="#efebdc"/><path d="m339.69 223.04-.44 2.69c-3.43 20.65-12.49 39.84-27.22 53.04s-35.13 20.41-56.03 21.56v-103.1c7.06 0 14.12 2.43 19.83 7.29 12.74 10.84 28.75 17.1 45.47 17.77z" fill="#d6cfbd"/><g><path d="m374.29 332.29-118.29 118.77-118.29-118.77h51.58l66.71 66.98 66.71-66.98z" fill="#efebdc"/></g><g><path d="m374.29 332.29-118.29 118.77v-51.79l66.71-66.98z" fill="#d6cfbd"/></g><path d="m256 33.333c-53.33 0-115.061 35.203-101.905 122.204l101.905-37.787 101.768 37.663c13.155-87.001-48.438-122.08-101.768-122.08z" fill="#4cd3aa"/><path d="m357.77 155.41-101.77-37.66v-84.42c53.33 0 114.92 35.08 101.77 122.08z" fill="#26b290"/><path d="m256 111c-60.667 0-101.905 44.538-101.905 44.538 8.576 26.041 37.926 18.894 54.561-2.207 5.442-6.903 12.516-11.612 19.53-14.822 17.521-8.019 38.107-8.019 55.628 0 7.014 3.21 14.088 7.919 19.53 14.822 16.634 21.101 45.848 28.123 54.424 2.082 0 0-41.101-44.413-101.768-44.413z" fill="#26b290"/><path d="m357.77 155.41c-8.58 26.04-37.79 19.02-54.43-2.08-5.44-6.9-12.51-11.61-19.53-14.82-8.76-4.01-18.29-6.01-27.81-6.01v-21.5c60.67 0 101.77 44.41 101.77 44.41z" fill="#199977"/></g></g></svg>