<?xml version="1.0" encoding="UTF-8"?>
<!DOCTYPE svg PUBLIC "-//W3C//DTD SVG 1.1//EN" "http://www.w3.org/Graphics/SVG/1.1/DTD/svg11.dtd">
<!-- Creator: CorelDRAW X7 -->
<svg xmlns="http://www.w3.org/2000/svg" xml:space="preserve" width="247px" height="247px" version="1.1" style="shape-rendering:geometricPrecision; text-rendering:geometricPrecision; image-rendering:optimizeQuality; fill-rule:evenodd; clip-rule:evenodd"
viewBox="0 0 513 513"
 xmlns:xlink="http://www.w3.org/1999/xlink">
 <defs>
  <style type="text/css">
   <![CDATA[
    .fil1 {fill:#81F500}
    .fil0 {fill:#83FC0B}
   ]]>
  </style>
   <mask id="id0">
  <radialGradient id="id1" gradientUnits="userSpaceOnUse" cx="-0" cy="0" r="0" fx="-0" fy="0">
   <stop offset="0" style="stop-opacity:0.290196; stop-color:white"/>
   <stop offset="1" style="stop-opacity:0; stop-color:white"/>
  </radialGradient>
    <rect style="fill:url(#id1)" x="-2" y="-2" width="518" height="518"/>
   </mask>
 </defs>
 <g id="Layer_x0020_1">
  <metadata id="CorelCorpID_0Corel-Layer"/>
  <path class="fil0" d="M171 317c-16,-40 -11,-80 -1,-120 51,11 47,109 1,120zm303 -73c-22,6 -50,-1 -74,2l0 22 74 0 0 -24zm-361 1c-17,0 -34,0 -51,0 -24,0 -25,-4 -22,23l74 0 -1 -23zm-60 -67c12,2 24,4 37,5 7,1 13,2 20,3 13,2 12,1 17,0l2 -21c-69,-7 -81,-22 -76,13zm366 178c12,-3 26,2 40,2l2 -5 -1 -16c-12,-4 -63,-12 -73,-10l-2 20c6,3 10,3 17,4 17,2 13,3 17,5zm42 -178l-1 -22 -14 -2c-10,6 -46,9 -62,11l3 23 74 -10zm-396 180l63 -8 -2 -24 -75 10 3 22 11 0zm277 -41c-49,-15 -46,-110 0,-119 14,22 15,96 0,119zm13 -147c-98,6 -96,171 2,174 11,-33 19,-48 19,-89 0,-22 -6,-59 -16,-78 -4,-8 -2,-4 -5,-7zm-198 174c44,-1 74,-40 74,-86 0,-44 -30,-89 -74,-88 -26,38 -26,137 0,174z"/>
  <path class="fil1" style="mask:url(#id0)" d="M256 0c142,0 257,115 257,256 0,142 -115,257 -257,257 -141,0 -256,-115 -256,-257 0,-141 115,-256 256,-256z"/>
 </g>
</svg>
