<svg id="Capa_1" enable-background="new 0 0 512 512" height="512" viewBox="0 0 512 512" width="512" xmlns="http://www.w3.org/2000/svg"><g><g><g><g><g><g><g><circle cx="256" cy="256" fill="#ff6c52" r="256"/></g></g></g></g></g></g><path d="m512 256c0-8.406-.406-16.718-1.197-24.916l-115.059-115.059-9.666 32.676-85.373-85.373-231.807 128.53 125.154 125.154-77.796 78.963 114.828 114.828c8.198.791 16.51 1.197 24.916 1.197 141.385 0 256-114.615 256-256z" fill="#ef2318"/><g><path d="m410.425 256c0-9.27-.817-18.35-2.383-27.17-1.187-6.688 1.6-13.455 7.158-17.36l27.903-19.608-47.359-75.836-29.879 16.474c-5.934 3.272-13.24 2.843-18.706-1.161-10.346-7.578-21.671-13.9-33.749-18.739-6.276-2.515-10.487-8.486-10.854-15.237l-1.851-34.036h-89.409l-1.851 34.035c-.367 6.751-4.578 12.722-10.854 15.237-12.077 4.839-23.401 11.16-33.747 18.738-5.467 4.004-12.772 4.433-18.706 1.161l-29.879-16.475-47.36 75.835 27.903 19.609c5.557 3.905 8.344 10.673 7.157 17.36-1.566 8.821-2.383 17.902-2.383 27.173 0 9.267.816 18.343 2.381 27.161 1.186 6.686-1.599 13.451-7.154 17.356l-27.905 19.622 47.359 75.836 29.891-16.471c5.933-3.269 13.236-2.84 18.701 1.163 10.342 7.574 21.661 13.892 33.733 18.731 6.274 2.514 10.484 8.483 10.853 15.231l1.861 34.044h89.409l1.861-34.044c.369-6.749 4.579-12.717 10.853-15.231 12.071-4.838 23.39-11.155 33.731-18.729 5.465-4.003 12.768-4.432 18.701-1.163l29.891 16.472 47.36-75.835-27.905-19.622c-5.554-3.906-8.34-10.671-7.154-17.356 1.565-8.82 2.382-17.897 2.382-27.165z" fill="#606aea"/></g><g><path d="m408.043 283.164c1.565-8.818 2.382-17.896 2.382-27.164 0-9.27-.817-18.35-2.383-27.17-1.187-6.688 1.6-13.455 7.157-17.36l27.903-19.608-47.359-75.836-29.878 16.474c-5.934 3.272-13.24 2.843-18.706-1.161-10.346-7.578-21.671-13.9-33.749-18.74-6.276-2.515-10.487-8.486-10.854-15.237l-1.851-34.035h-44.705v385.345h44.704l1.861-34.044c.369-6.749 4.579-12.717 10.853-15.231 12.071-4.838 23.39-11.155 33.731-18.729 5.466-4.003 12.768-4.432 18.701-1.163l29.891 16.472 47.36-75.835-27.905-19.622c-5.553-3.905-8.339-10.671-7.153-17.356z" fill="#4855b7"/></g><g><path d="m205.177 305.355h101.647v146.645h-101.647z" fill="#e9edf5"/></g><g><path d="m256 305.355h50.823v146.645h-50.823z" fill="#cdd2e1"/></g><g><path d="m311.613 165.273v103.593l-55.613 26.022-55.613-26.022v-103.593c-33.285 19.239-55.682 55.217-55.682 96.426 0 61.467 49.829 111.296 111.296 111.296s111.296-49.829 111.296-111.296c-.001-41.209-22.399-77.187-55.684-96.426z" fill="#fff"/></g><g><path d="m311.613 165.273v103.593l-55.613 26.022v78.103c.089 0-.089.003 0 .003 61.467 0 111.296-49.829 111.296-111.296 0-41.208-22.398-77.186-55.683-96.425z" fill="#e9edf5"/></g></g></svg>