<?xml version="1.0" encoding="iso-8859-1"?>
<!-- Generator: Adobe Illustrator 19.0.0, SVG Export Plug-In . SVG Version: 6.00 Build 0)  -->
<svg xmlns="http://www.w3.org/2000/svg" xmlns:xlink="http://www.w3.org/1999/xlink" version="1.1" id="Layer_1" x="0px" y="0px" viewBox="0 0 492.76 492.76" style="enable-background:new 0 0 492.76 492.76;" xml:space="preserve" width="512" height="512">
<g>
	<path style="fill:#046EFF;" d="M492.76,246.38c0,65.81-25.63,127.68-72.16,174.22c-46.54,46.53-108.41,72.16-174.22,72.16   S118.7,467.13,72.16,420.6C25.63,374.06,0,312.19,0,246.38S25.63,118.7,72.16,72.16C118.7,25.63,180.57,0,246.38,0   S374.06,25.63,420.6,72.16C467.13,118.7,492.76,180.57,492.76,246.38z"/>
	<path style="fill:#0051BF;" d="M492.76,246.38c0,65.81-25.63,127.68-72.16,174.22c-46.54,46.53-108.41,72.16-174.22,72.16V0   c65.81,0,127.68,25.63,174.22,72.16C467.13,118.7,492.76,180.57,492.76,246.38z"/>
	<path style="fill:#FFF5CC;" d="M459.38,246.38c0,117.446-95.554,213-213,213s-213-95.554-213-213s95.554-213,213-213   S459.38,128.934,459.38,246.38z"/>
	<path style="fill:#FFE1BB;" d="M459.38,246.38c0,117.446-95.554,213-213,213v-426C363.826,33.38,459.38,128.934,459.38,246.38z"/>
	<path style="fill:#FF6379;" d="M423.38,240.803c0,11.15-1.03,22.07-3.01,32.65c-1.32,7.06-7.55,12.14-14.73,12.14h-25.15   c-9.32,0-16.45-8.42-14.77-17.6c1.66-9.14,2.54-18.66,2.54-27.19c0-33.65-13.64-64.13-35.7-86.19   c-22.06-22.05-52.53-35.69-86.18-35.69s-64.12,13.64-86.18,35.69c-22.06,22.06-35.7,52.54-35.7,86.19c0,8.53,0.88,18.05,2.54,27.19   c1.68,9.18-5.45,17.6-14.77,17.6H87.12c-7.18,0-13.41-5.08-14.73-12.14c-1.98-10.58-3.01-21.5-3.01-32.65   c0-48.88,19.82-93.13,51.84-125.16c32.03-32.03,76.28-51.84,125.16-51.84s93.13,19.81,125.16,51.84   C403.56,147.673,423.38,191.923,423.38,240.803z"/>
	<path style="fill:#FF1F3E;" d="M423.38,240.803c0,11.15-1.03,22.07-3.01,32.65c-1.32,7.06-7.55,12.14-14.73,12.14h-25.15   c-9.32,0-16.45-8.42-14.77-17.6c1.66-9.14,2.54-18.66,2.54-27.19c0-33.65-13.64-64.13-35.7-86.19   c-22.06-22.05-52.53-35.69-86.18-35.69v-55.12c48.88,0,93.13,19.81,125.16,51.84C403.56,147.673,423.38,191.923,423.38,240.803z"/>
	<path style="fill:#00CC76;" d="M124.5,240.803c0,8.529,0.875,18.055,2.543,27.195c1.673,9.171-5.45,17.595-14.773,17.595H87.12   c-7.18,0-13.41-5.08-14.73-12.14c-1.98-10.58-3.01-21.5-3.01-32.65c0-48.88,19.82-93.13,51.84-125.16l38.98,38.97   C138.14,176.673,124.5,207.153,124.5,240.803z"/>
	<path style="fill:#C9001C;" d="M423.38,240.803c0,11.15-1.03,22.07-3.01,32.65c-1.32,7.06-7.55,12.14-14.73,12.14h-25.15   c-9.323,0-16.446-8.424-14.773-17.595c1.668-9.14,2.543-18.665,2.543-27.195c0-33.65-13.64-64.13-35.7-86.19l38.98-38.97   C403.56,147.673,423.38,191.923,423.38,240.803z"/>
	<path style="fill:#046EFF;" d="M257.49,284.17c-4.02,7.23-13.15,9.85-20.4,5.82l-76.89-42.73l-56.28-31.27   c-7.25-4.02-9.85-13.15-5.83-20.4c4.02-7.24,13.16-9.84,20.4-5.82l41.71,23.18l91.47,50.82   C258.91,267.79,261.52,276.92,257.49,284.17z"/>
	<path style="fill:#FFDA44;" d="M343.46,371.38v33.2c0,8.29-6.71,15-15,15H164.3c-8.29,0-15-6.71-15-15v-33.2c0-8.28,6.71-15,15-15   h164.16C336.75,356.38,343.46,363.1,343.46,371.38z"/>
	<path style="fill:#FFB655;" d="M343.46,371.38v33.2c0,8.29-6.71,15-15,15h-82.08v-63.2h82.08   C336.75,356.38,343.46,363.1,343.46,371.38z"/>
	<path style="fill:#FFDA44;" d="M300.88,277.12c0,30.05-24.45,54.5-54.5,54.5s-54.5-24.45-54.5-54.5s24.45-54.5,54.5-54.5   S300.88,247.07,300.88,277.12z"/>
	<path style="fill:#FFB655;" d="M300.88,277.12c0,30.05-24.45,54.5-54.5,54.5v-109C276.43,222.62,300.88,247.07,300.88,277.12z"/>
	<path style="fill:#046EFF;" d="M272.62,277.12c0,14.47-11.77,26.24-26.24,26.24s-26.24-11.77-26.24-26.24s11.77-26.24,26.24-26.24   S272.62,262.65,272.62,277.12z"/>
	<path style="fill:#0051BF;" d="M272.62,277.12c0,14.47-11.77,26.24-26.24,26.24v-52.48C260.85,250.88,272.62,262.65,272.62,277.12z   "/>
</g>















</svg>