<?xml version="1.0" encoding="UTF-8"?>
<!DOCTYPE svg PUBLIC "-//W3C//DTD SVG 1.1//EN" "http://www.w3.org/Graphics/SVG/1.1/DTD/svg11.dtd">
<!-- Creator: CorelDRAW X6 -->
<svg xmlns="http://www.w3.org/2000/svg" xml:space="preserve" width="26.9017mm" height="53.6472mm" version="1.1" style="shape-rendering:geometricPrecision; text-rendering:geometricPrecision; image-rendering:optimizeQuality; fill-rule:evenodd; clip-rule:evenodd"
viewBox="0 0 8317 16586"
 xmlns:xlink="http://www.w3.org/1999/xlink">
 <defs>
  <style type="text/css">
   <![CDATA[
    .fil0 {fill:#2DF6FF}
   ]]>
  </style>
 </defs>
 <g id="Layer_x0020_1">
  <metadata id="CorelCorpID_0Corel-Layer"/>
  <path class="fil0" d="M96 15592l22 -5298c0,-186 3,-352 14,-538 10,-165 -6,-364 -5,-538l8 -1586c0,-177 11,-358 4,-534l449 6c-16,1408 -33,2827 -31,4238 0,161 -3,366 -13,525 -10,169 -1,352 -1,524 -2,1073 -21,2127 -16,3204l-431 -3zm6738 -325c-18,-63 -54,-90 -109,-76 -53,12 -97,48 -88,114 18,146 239,102 197,-38zm-5436 -115c-112,33 -81,241 61,202 128,-35 71,-240 -61,-202zm3108 -7740c0,6 -11,-61 -41,-65 -57,13 -27,-4 -50,62l-79 11 -1 141 236 3c-1,-3 -1,-8 -4,-9l-6 -21c3,-22 36,10 22,-112l-77 -10zm1914 -5299c11,-35 26,-60 20,-101 -19,-114 -223,-121 -258,-25 -6,17 -8,34 -8,53 2,44 17,70 48,87 60,33 142,8 198,-14zm-2001 4722c16,48 -26,-12 15,21 43,35 26,-3 51,29 -46,-16 -21,-14 -80,-12 -27,56 -79,129 -47,213 95,3 16,20 67,-53 17,24 13,-27 -5,50 -1,3 -3,8 -4,13l174 3c20,-111 0,-106 -39,-183 -43,-86 -24,-98 -132,-81zm565 2127c18,-258 -227,-230 -260,-103 -19,70 28,150 81,168 97,33 127,-30 179,-65zm-2760 -7013c-62,-24 -126,-58 -211,-23 -25,10 -51,23 -62,76 -28,132 100,184 206,150 90,-28 82,-114 67,-203zm1146 4481c-31,52 -16,29 -1,53 105,176 -94,277 -208,195 -55,-41 -58,-91 -44,-170 56,-32 48,-51 117,-48 48,3 81,14 100,-31 26,-59 -45,25 1,-16l35 17zm19 325c-14,-37 -34,-31 -9,-61 23,-28 40,-18 28,-63 -1,45 -14,17 3,66 1,2 3,7 5,10 186,-279 -172,-467 -331,-266 -114,142 -14,342 157,349 93,3 67,-26 147,-35zm-874 -3533c22,-14 15,-27 -1,30 -25,88 -124,262 -216,268 -85,5 -240,-218 -241,-326 64,11 172,7 243,10 42,1 79,1 122,0 45,-1 73,-13 93,18zm-514 -127c-9,227 148,472 286,478 124,6 162,-95 210,-168 60,-91 85,-187 78,-310 -215,-104 -367,-101 -574,0zm861 -1118c-15,-43 -10,-54 -12,-99 -3,-67 0,-72 -26,-101 -57,27 -40,56 -49,135 -13,104 -18,60 -118,70l-7 366c50,21 55,15 107,16 42,109 18,134 -2,253l-62 23 7 167 192 0c11,-178 29,-140 -45,-190 -14,-108 -19,-147 -4,-253 125,16 113,-19 112,-136 0,-85 5,-157 1,-237l-94 -14zm2828 5305c-23,118 -31,109 0,226 17,63 27,174 37,227 17,92 14,122 97,164 88,43 144,15 208,-32 102,-76 34,-314 1,-423 -21,-67 -61,-110 -119,-145 -97,-58 -111,-47 -224,-17zm-1674 -1062c42,26 81,-43 233,-10 41,9 61,22 93,42 30,20 5,-2 39,27 43,37 15,8 34,45 33,66 58,156 30,239 -12,35 -26,59 -47,89l-18 22c-94,112 -312,147 -442,-45 -129,-189 38,-341 52,-366 14,-25 10,44 9,-37 0,-4 -2,-15 -4,-19 2,-88 336,-106 336,-13 -15,3 -254,-76 -315,26zm-195 81c-98,137 -10,322 12,403 67,16 31,4 81,-6 14,39 33,41 42,54l20 47c2,5 4,8 6,13 59,135 413,32 383,10l60 -118c81,12 88,0 115,-76 29,-81 38,-94 28,-193 -30,-277 -126,-133 -179,-253 -16,-35 14,-67 -138,-92 -85,-13 -227,2 -283,50 -63,54 7,75 -64,121l-83 40zm-1333 928l-101 17c-42,21 -63,62 -96,125 -23,46 -19,34 -27,78 -21,120 -59,285 -50,384 5,1 156,138 304,32l34 -39c31,-54 44,-195 59,-270 15,-77 39,-147 37,-247 -55,-34 -61,-80 -160,-80zm390 2745c16,40 26,55 42,82 -30,-16 -36,-24 -55,-45 -2,2 0,6 -3,7 -62,18 1,-3 -12,29 -16,42 -38,37 8,76 -23,-17 -40,1 -61,23 39,19 108,78 131,116 -121,-38 -64,-88 -167,-122 -12,43 -4,60 -4,66 4,73 8,92 109,167l42 32c-46,-23 -58,-38 -93,-75l-85 -77c-19,26 -32,51 -46,89l-15 27c-1,0 -4,2 -5,3 -31,27 3,-30 -17,16 74,122 299,259 453,297 -92,-12 -178,-35 -254,-90 -126,-92 -224,-187 -305,-314 -12,-18 -34,-49 -48,-72 -17,-31 -25,-53 -42,-89 -90,-186 -155,-565 -208,-773 -36,-139 -80,-260 -107,-396 -59,-294 -150,-494 -171,-820 -63,-961 201,-1957 632,-2811 55,-110 146,-235 173,-349 -260,1 -669,-27 -916,-13 -93,5 -68,9 -80,80l-247 -423c-74,-141 -163,-281 -245,-438l29 -34c54,-78 -27,-103 22,-141 47,-37 435,-10 523,-10 113,0 316,-33 396,18 2,20 -61,138 35,132 82,-6 22,-171 22,-171 -58,-99 -358,-50 -480,-50 -56,0 -517,-21 -552,26l-38 128c-43,-19 -329,-547 -405,-690 -44,-82 -115,-153 -133,-243l1020 -1c36,-89 38,-1545 39,-1599l2302 -2 -12 1401 -1374 -1c-8,98 -23,67 4,133 105,37 341,3 467,1l836 -1c79,3 50,-8 65,31 -200,-2 -1072,-18 -1181,26 -159,65 -109,361 -111,523l-7 1187 131 0c-28,44 -13,12 -56,49 -3,3 -28,29 -28,29 -11,16 -14,19 -25,52 70,-20 93,-74 165,-115 56,-32 125,-65 204,-25 147,74 87,272 65,405 -52,303 -124,604 -169,904 -21,143 -62,306 -92,449 -30,144 -48,304 -81,456 -182,851 -220,896 -48,1765 47,240 76,593 191,793 1,2 3,6 5,8l16 25c99,143 221,268 413,291 252,29 1090,31 1456,11 15,18 -2,-8 10,24l17 41c56,-12 102,-22 152,-42 70,-28 75,-56 139,-67 -9,-27 -10,-21 -16,-32 -46,-73 8,26 -14,-19 52,-16 41,-4 51,-59l-63 34c-32,21 -64,44 -111,54 48,-10 62,-24 88,-50 15,-13 20,-19 35,-33 29,-27 12,-7 40,-40 52,-63 81,-113 109,-202 46,-145 85,-359 112,-510 63,-353 177,-749 177,-1122 0,-163 -65,-483 -100,-647 -43,-208 -62,-429 -106,-634 -87,-412 -130,-864 -221,-1274 -32,-148 -134,-508 104,-523 264,-17 438,381 528,575 294,637 493,1332 537,2060 49,828 -150,1210 -309,1911 -71,313 -212,854 -409,1086 -45,52 -27,13 -69,33l-114 77c-29,15 -17,9 -35,19 -90,48 -196,60 -317,51 -7,22 1,18 1,23 0,37 27,-13 -1,21 -294,2 -1468,20 -1776,6 -63,-3 -126,-4 -187,-9 6,-23 -13,-15 3,-41 15,-26 7,20 34,-27 -35,-13 -63,-26 -92,-35 -228,-65 -183,-98 -240,-117 4,0 27,19 57,35 102,54 160,83 291,99 -9,-144 48,-106 32,-218 34,-1 11,-4 32,0 73,16 -3,-12 22,9 -23,-49 -12,-28 -5,-84 5,-44 -2,-45 -101,-80 -3,-1 -7,-2 -10,-3 -44,-16 -6,4 -56,-25 -50,-29 7,-9 -45,-26 82,27 132,67 229,84 -61,-94 -102,-54 -216,-132l-155 -126c-32,-21 8,-4 -50,-28zm866 5741l-10 100c-69,-16 -139,-84 -191,-103l27 -2c215,-5 -49,-257 -44,-23 -103,-90 -140,-165 -160,-310 -31,-222 103,-354 273,-450 176,-98 384,-128 585,-83 185,42 287,80 400,199l34 33c143,155 96,400 -31,568 -65,86 -179,156 -292,185 0,-207 -99,-139 -421,-155 -103,-5 -100,9 -170,41zm345 -971c-259,0 -675,140 -753,420 -66,234 18,471 212,606 97,67 57,40 185,92l5 132c100,62 328,41 458,40 119,0 135,-47 135,-161 126,-12 275,-108 346,-206 101,-140 132,-259 98,-466 -13,-83 -45,-124 -92,-190l-63 -73c-28,-28 -52,-39 -88,-60 -124,-72 -263,-134 -443,-134zm1253 -11641c53,9 64,-7 125,-5 -19,53 -38,19 -6,72 25,-6 34,27 70,-108 8,-29 5,-41 11,-69 15,-79 12,-22 28,-70 10,-29 14,-298 3,-321 34,45 14,260 -4,325 31,10 42,13 67,27 0,45 3,101 9,129 15,68 19,79 90,75 -1,-4 0,-9 -5,-11 -2,-1 -21,-29 -14,-45 75,14 167,50 178,107 -114,91 -559,104 -634,-27 20,-32 8,-18 38,-41 51,-40 20,14 44,-38zm639 79c40,-4 86,42 106,82 53,111 -4,90 16,197 35,187 -92,527 -185,662 -221,322 -465,330 -682,-3 -114,-176 -162,-366 -170,-582l13 -136c4,-29 -24,-14 5,-18 0,-209 86,-176 122,-229 -36,31 -70,97 -71,162 -1,59 -5,56 30,92 260,271 1061,159 816,-227zm-639 -79c-183,-23 -296,91 -315,254 -13,115 14,398 44,506 61,213 289,617 563,548 244,-62 420,-417 479,-634 52,-191 116,-551 -107,-633l-184 -56c42,4 95,20 147,-14 -17,-13 -7,-8 -37,-18l-123 -7c-103,5 -88,-11 -106,12 48,0 99,-1 148,0 133,4 113,2 148,-39 -57,-1 -301,15 -323,-15 60,-23 286,-19 352,-1 -3,66 -28,-27 -7,41 18,60 31,41 32,41 35,-43 14,49 27,-67 2,-17 -4,-48 -5,-67l-399 0c-26,-95 -1,-15 -32,-51 -26,-31 -21,-1 -24,-57 24,-27 34,-7 51,-54 8,-23 3,-79 3,-107 -30,-24 0,-14 -52,-27 -10,-75 12,-67 4,-133 -8,-62 -33,-67 -15,-134l116 -20c6,-72 -1,-162 1,-238 4,-177 12,-103 -88,-147 -13,-66 -1,-144 -45,-188 -48,29 -4,-11 -27,28 -18,31 0,-7 -9,24 -11,36 8,71 -17,138 -52,21 -31,-7 -92,15l-9 372 101 0c51,115 -31,97 4,269 -47,38 -45,-1 -58,54 -2,9 -6,100 -8,121 24,6 47,11 64,23 -7,81 -61,101 -50,108 3,1 -4,6 -6,10 -90,-10 -308,-27 -391,0l10 120c63,9 199,6 235,23zm-2876 10918l7 71c52,-23 4,-36 55,-57 22,54 -6,22 35,50 -17,73 -49,-19 -39,40 6,31 299,20 354,21 485,7 262,-29 350,100 72,-5 46,-12 61,-84l711 -11c-24,91 -24,76 -29,184 -90,26 -880,-12 -1079,3l-13 -79c-8,-1 -9,-3 -16,-3 -7,-1 -9,-3 -12,-4l-94 -7c-270,-3 -659,7 -901,-12 18,0 -23,29 14,-14l189 -258 -7 161c58,-7 48,-16 89,-1l33 66c4,-11 7,-20 11,-31 6,-17 14,-36 20,-52 60,-2 5,-9 70,26 16,-75 3,-153 1,-231l6 208c37,-24 50,-30 60,-93 14,40 4,56 28,66 77,29 44,-211 38,-243l-59 25c-3,0 -6,0 -9,1l-118 -13c-38,-11 -77,-24 -123,-7l-20 -893 745 8c74,-7 175,-6 256,-7 346,-5 685,3 1036,3 694,0 1343,4 2028,3 15,238 -11,509 -10,752 1,142 4,217 60,328 86,167 144,160 155,236 -67,-13 -966,-19 -1036,-5l-27 88 -1063 -15c-7,-142 6,-88 -41,-196l699 10c22,71 -28,100 69,91l10 -53c1,-3 2,-8 3,-11l6 -24c100,-32 460,12 699,-18 83,-10 25,24 56,-8 23,-27 0,-31 -4,-87l2 -363c-1,-400 69,-537 -153,-542l-592 -2c-16,-51 8,-73 -42,-74 -68,-1 -12,-5 -39,69 -222,26 -574,-2 -807,-4l-606 -1c-93,1 -152,16 -183,-14 -5,-54 6,-20 -18,-49 -71,2 -45,-2 -68,62 -139,0 -278,-7 -417,-1 -118,6 -307,-42 -327,99 -9,61 -14,751 -4,796zm-749 -13096c22,98 -5,601 -9,751 -9,320 147,245 -754,242 -253,0 -520,-8 -772,7 -31,-147 4,-807 7,-1002l1528 2zm-1381 3207c-55,51 -45,42 -148,32 -12,-67 -17,-426 10,-463 27,-26 332,-8 400,-8 31,114 -3,684 -6,847l-22 1680c0,270 -24,589 -8,848l-423 4 6 -577c184,-6 240,33 262,-40 5,-17 3,-72 3,-92l-254 -13 21 -2046c44,0 213,14 238,-9 21,-20 21,-81 5,-106l-84 -57zm1366 10491l2 120c6,25 6,22 14,34 103,33 475,3 609,19 24,44 14,103 6,159 -138,13 -297,-8 -437,-4 -417,14 -890,-12 -1321,-3 -29,-64 -13,-243 -3,-322 190,-35 956,30 1130,-3zm-1124 -40c-43,-142 20,-2375 10,-2837 -9,-468 8,-955 16,-1425 8,-476 3,-948 11,-1425l14 -2124c2,-234 20,-482 13,-713 -15,-468 16,-964 16,-1438 0,-461 6,-952 23,-1407 24,16 391,687 458,804 27,45 66,89 86,128l387 691c216,360 151,233 151,698 0,1117 -23,2267 -32,3388 -10,1131 3,2270 -26,3401 -4,139 -1,290 3,430 5,139 -9,287 -8,430 3,287 -3,574 -4,861 0,128 16,281 -42,349l-165 157c-33,32 -16,29 -65,33 -233,17 -607,5 -846,-1zm1123 -12597c19,78 -4,448 -2,564 3,188 -5,369 -1,555 -158,0 -964,-23 -1043,3 -2,3 0,9 -5,11 -19,9 -15,248 -15,265 -1,89 -3,178 -3,269l-431 1c-39,-68 -10,-322 -9,-419 2,-124 -27,-96 -35,-187l11 -646c5,-131 -3,-305 9,-424 163,16 1464,-4 1524,8zm-168 14451l-1488 -10 1 -806 483 5 7 696 1300 16 5 100 -308 -1zm238 -7488l8 -1018c-4,56 66,323 85,391 27,95 101,258 148,349 40,78 202,698 206,780 -79,2 -149,2 -228,-1l-176 -1c-63,-13 -31,-6 -41,-30 -11,-26 -2,-408 -2,-470zm254 3208l0 -454c76,-17 246,-13 330,-9 150,6 118,84 113,227 -11,330 14,224 -443,236zm-242 -2222l-9 1031 203 -2c-3,-5 9,-14 -11,-5 -1,1 -6,3 -8,4l-21 17c3,3 15,5 12,7 -2,1 9,5 12,6 41,29 30,-2 31,53 2,36 -2,84 -2,122 0,82 2,150 -7,230 -16,129 18,357 -6,477 -20,-141 8,-366 7,-402 -3,-109 7,-20 -20,-52 -34,-42 -30,60 -28,-213 0,-57 9,-203 -13,-242 -17,25 -12,9 -19,53l-3 162c-1,70 -6,142 -3,211 10,-52 2,-138 2,-197 1,-37 -1,-72 -1,-108 1,-50 8,-85 -16,-121 -18,25 -13,9 -20,53 -3,18 10,293 -7,380 -13,-114 3,-374 -1,-398 -1,-4 -3,-8 -4,-11l-9 -24c-51,65 -10,252 -25,377 -1,5 -3,19 -4,23 -8,32 -5,19 -11,26l0 -291c-36,33 -18,1 -34,52l-3 163c-1,257 -23,1438 -2,1574 52,6 202,14 250,-11 37,-135 -32,-600 18,-681 16,119 5,979 2,1161 -2,124 15,487 -13,569l-112 183c-49,58 -100,125 -160,122 -27,-119 -6,-436 -5,-578 1,-202 2,-404 -1,-605 -7,-393 6,-801 6,-1197 0,-381 19,-787 17,-1169 -1,-194 2,-397 7,-592 4,-181 -12,-410 3,-582l228 219c29,37 42,56 47,108 16,159 6,449 1,618 -3,140 4,1173 -20,1201 -14,-28 1,-736 1,-838 -1,-226 40,-687 4,-879l-253 -4zm-1212 6349c-26,-71 -7,-1123 -5,-1298 107,-12 1734,12 1754,18 47,49 8,210 7,291 -3,325 11,688 -14,1008 -278,4 -582,5 -861,-9 -176,-9 -773,26 -881,-10zm1756 -11145c12,31 -1,36 68,46l-2 417c-59,31 -76,35 -128,57 -62,27 -365,179 -396,172l4 -646 427 -8c35,-10 18,-3 39,-19 -53,-28 -172,-16 -241,-16 -89,0 -178,-12 -265,-6 -6,96 -18,692 3,740 50,3 339,-130 421,-168l82 -40c4,-1 15,-5 19,-7 14,-5 17,-7 33,-12l-286 702c-108,155 -212,409 -266,609 -20,72 -28,159 -55,220l32 -2061 832 11c-20,44 -38,63 -57,106 -16,36 -32,83 -57,118 -33,49 -12,0 -36,47 -17,33 1,35 -55,141 -16,30 -13,1 -9,20l-3 -415 -104 -8zm236 11181c-52,-12 -116,-14 -176,3 -2,51 4,122 -20,162l-40 2c-4,-100 4,-197 67,-274l202 5c17,36 38,52 44,99 5,49 -2,115 -2,168l-56 -4 -13 -149c-1,-4 -3,-8 -6,-12zm352 -958c0,-132 28,-232 -61,-299 -91,-68 -199,-32 -254,36 -53,65 -50,484 -47,613 0,2 4,40 5,41 20,56 -14,11 36,51 15,-76 5,-318 9,-428 2,-58 0,-151 11,-202 14,-64 46,-96 118,-106 223,-32 131,394 150,724 38,30 104,37 32,118 -24,26 -91,49 -131,51 -39,3 -84,-4 -119,-25l-14 -11c-42,-34 -60,-92 -81,-129l-200 -17c-10,-128 8,-272 4,-403 -6,-233 36,-452 301,-496 231,-38 436,110 433,361 -2,134 -7,271 -6,404 1,150 29,107 -128,161 -1,0 -28,54 -53,-27 -14,-47 -5,-344 -5,-417zm1128 -12228l8 102c-210,72 -128,187 -94,211 37,27 55,13 90,31l-3 192 -440 14 -13 117c-108,10 -250,5 -377,9l-296 0c-70,0 -67,-1 -95,17 96,44 614,0 767,12l-1 184c-88,14 -736,20 -801,0 0,-178 6,-352 8,-532 2,-184 -27,-330 176,-343 329,-22 728,-17 1071,-14zm-991 1424l-14 62 -106 1c0,-12 3,-42 3,-43 -3,-504 -65,-493 266,-492 86,0 214,-17 269,24 38,57 26,352 14,430 -61,9 -158,26 -202,26 -79,0 -126,-20 -230,-8zm-968 8344l-7 -699c177,-58 401,67 428,-95 9,-51 4,-120 3,-174 -3,-116 39,-253 -86,-273 -91,-15 -247,21 -341,-9 12,-511 -17,-1268 16,-1763l5 -35c34,-13 27,-12 103,-6l17 28c23,37 -21,-5 22,32 14,-58 4,-76 12,-122 8,-45 22,-26 32,-82 16,208 22,93 50,188 18,60 24,120 46,179 46,124 109,211 171,302 84,123 251,269 388,319 58,21 143,28 190,45 19,120 -4,475 -7,619l-9 1223c-2,125 -11,189 63,250 93,77 138,24 209,36 64,11 29,-5 41,37 -65,36 -539,13 -660,13 -199,1 -494,8 -686,-13zm1413 -5674l11 82 81 22c3,1 8,2 12,4 -4,79 -69,157 -91,164 -119,4 -175,-67 -148,-177l89 -4 5 -90 41 -1zm-89 -49c-26,55 -3,67 -32,84 -59,-40 0,-244 107,-241 152,3 150,217 108,243 -40,7 -16,-25 -31,-85l-152 -1zm735 -7129l171 -7c25,146 -7,1744 -9,1929l-1 1465c0,140 43,373 -107,374 -162,1 -110,-243 -110,-374 2,-971 21,-1946 41,-2917 3,-142 -12,-342 15,-470zm215 3661l233 7c1,31 7,-3 -23,35 -92,115 -164,224 -411,219 -88,-1 -194,-44 -264,-99 -39,-31 -56,-44 -103,-71 -28,-16 -78,-38 -97,-75l347 -13c30,84 38,142 157,140 124,-2 124,-60 161,-143zm158 8561c-46,-15 -78,-17 -131,-1l-15 102 -470 -3 -10 -112c-28,2 -37,-5 -62,18 -36,33 -6,21 -6,23 0,0 33,12 -19,58 -18,-94 18,-72 -37,-100l-21 18c-25,36 -19,28 -19,89 -165,14 -141,-190 -140,-349l21 -1273 1041 -9c26,110 -13,1055 -10,1309 1,128 27,318 -106,323l-16 -93zm115 -8512l-2 753 -162 81c-21,13 -25,17 -48,32 -313,202 -641,-89 -753,-91l40 -725c2,-2 4,-5 6,-7 65,33 134,96 198,135 186,113 500,92 636,-85 17,-21 20,-25 35,-44l50 -49zm117 6965l-22 2192c-242,11 -688,2 -960,-1 -46,0 -246,-14 -283,5 -22,-74 -9,-954 -3,-1095 14,-350 11,-728 11,-1075l71 -12 -11 1370c0,153 -1,298 171,291 1,58 -36,118 149,94l27 -89 460 -3 18 76c4,17 1,9 9,23 221,26 99,-50 161,-96 15,-12 103,0 126,-148 22,-141 3,-369 8,-525l13 -942c0,-62 -4,-56 55,-65zm148 -3483l16 92 80 12c4,82 -37,114 -64,166 -119,11 -184,-42 -176,-162l85 -18 13 -91 46 1zm-65 -2683l65 4 0 474c-313,13 -1018,1 -1318,0 -30,-62 -16,-383 -14,-472 258,15 349,171 565,176 148,4 272,-46 388,-122 2,-2 5,-4 8,-6 76,-50 100,-53 196,-63l29 64 78 5c12,-23 17,-43 3,-60zm119 2636l-156 -4 -19 94c-40,-26 -39,-86 -27,-143 10,-42 47,-81 67,-113l124 3c46,64 109,180 38,256l-27 -93zm-312 1957c3,-66 -44,-155 -53,-256 -14,-165 23,-743 25,-952 -19,21 -32,55 -34,105 -14,269 -6,546 -26,813 -57,26 -231,-3 -302,5l-353 4c-2,0 -5,-2 -7,-2l-26 40c22,7 27,3 40,7l47 20c-8,-30 78,-24 100,-22l32 2c1,-1 6,-1 7,-1l40 -8c54,12 13,30 109,23 83,-7 139,13 312,-12l57 232 -997 -10 79 -225 84 -3c2,0 6,1 8,1l63 -4 5 -54 -143 -9c-12,-90 -1,-277 3,-381 4,-126 2,-261 4,-389l18 -661c5,-52 3,-74 -31,-106 -64,255 -20,557 -27,820 -5,194 13,693 -35,828 -22,-35 -11,-76 -7,-128l55 -982c-46,40 -26,-47 -42,150 -15,181 -79,1041 -70,1150 -254,-7 -455,13 -604,-193 -70,-96 -135,-471 -149,-626 -23,-256 -44,-807 172,-984 114,-94 180,-52 323,-72 28,115 -42,85 43,203 46,63 80,70 172,55 35,-31 18,-21 43,-50 63,-73 64,-105 70,-207l1065 7c-36,-35 -76,-35 -135,-34l-399 -2c-156,4 -380,11 -534,-2l1 -96 1067 11c29,166 -36,231 92,391l148 1c53,-98 84,-118 86,-263 39,-4 137,1 178,8 13,3 49,16 68,24l52 27c3,2 6,4 8,6 3,1 6,4 8,5 19,14 79,79 93,106 22,40 26,115 35,163 80,432 -15,682 -82,1074 -32,185 -74,281 -224,375 -143,89 -373,60 -532,78zm688 -4362c-287,47 -236,235 -191,479 37,204 78,404 109,615 23,153 215,1198 207,1244l-407 -4c-56,-110 -98,-143 -201,-131 -76,9 -43,12 -142,136l-1039 -19c-38,-13 -30,-122 -179,-126 -77,-1 -107,40 -174,135l-410 -8c-9,-87 303,-1580 342,-1825 19,-116 102,-292 -21,-442 -25,-32 -11,-16 -55,-40 -18,-9 -41,-22 -52,-26 55,-29 197,-61 263,-50 0,121 24,230 109,308 66,61 16,20 49,96 138,27 520,8 689,9 116,0 240,9 350,8 60,-1 116,0 175,0 27,0 55,1 81,1l77 -10c56,-15 13,-66 42,-119 40,-74 73,48 136,-309 54,5 227,79 242,78zm229 11084c-80,7 -121,88 -242,39 -39,-16 -49,-35 -78,-68 -30,-35 -51,-37 -62,-61 -14,-29 -4,-4 0,-5 -3,3 -4,6 -11,7 -17,3 -63,46 -128,-7l18 -43 61 14c85,7 82,-95 25,-111 -25,-7 -18,-7 -49,4l-55 39 2 -223c47,28 59,46 138,20 21,-124 -106,-129 -116,-68 -12,-17 -9,-6 -16,-36l0 -166c3,2 11,6 8,7l26 21c25,17 -16,19 48,17 43,-1 62,-30 78,-53 -24,-57 -81,-90 -146,-38 -10,-267 419,-367 594,-191 100,102 122,153 126,350 3,143 3,342 -8,482 -43,0 -92,-2 -134,1 -71,4 -77,10 -79,69zm-511 -8623l-8 -84 426 4c33,68 62,350 79,441 108,557 -45,883 -133,1408 -23,142 -63,297 -93,442 -30,136 -107,262 -203,334 -222,166 -667,101 -970,102 -166,0 -345,3 -511,-4 -163,-7 -272,9 -425,-117 -224,-184 -256,-431 -311,-761 -53,-316 -149,-585 -149,-927 1,-374 65,-595 140,-932l441 -10 -9 94c-143,8 -268,-15 -377,91 -153,149 -172,582 -170,798 2,171 23,273 47,436 44,293 109,506 365,588 222,72 658,38 919,37 319,0 888,49 1116,-92l35 -19c155,-89 180,-317 208,-473 49,-265 111,-581 68,-870 -24,-166 -8,-258 -113,-371 -116,-126 -192,-93 -372,-115zm471 9233c-29,-2 -47,15 -39,-141 5,-94 38,-65 65,-136l219 12c6,88 -13,58 18,139 20,51 20,67 11,126l-47 -2 -8 -155c-52,-7 -152,-22 -191,2 -27,17 -24,-58 -29,81 -1,22 1,51 1,74zm703 -4783l-12 452 -452 3c-18,-55 -18,-325 -11,-393l14 -49c145,-17 339,7 461,-13zm-407 4616c-1,-3 -16,-1128 9,-1250l12 -35c1,-3 3,-8 6,-11 81,-17 1740,-3 1762,5 0,407 27,928 -14,1316l-901 -10c-131,0 -816,17 -874,-15zm197 -6628l55 -181c118,-16 262,-9 378,-1 -14,32 -122,110 -151,137 -71,67 -97,77 -99,219 -3,200 -5,391 -7,592 -5,397 -2,802 -17,1200 -137,47 -352,-31 -451,37 -28,92 -18,375 -7,471 128,88 289,10 444,35 -6,107 17,661 -14,706 -23,28 -63,14 -153,13l-1077 -1c-63,-2 -130,23 -139,-27 72,-42 226,49 302,-107 42,-88 4,-306 17,-404l85 -19c10,-140 33,-1125 4,-1180 -61,-9 -42,-8 -73,30 0,-108 6,-129 4,-203 -2,-81 -13,-208 13,-271 141,-34 258,3 375,-82 226,-164 389,-435 441,-705 14,-73 47,-107 53,-182l15 68 92 10 0 -155c-42,-16 8,0 -24,8 -59,15 43,11 -23,-5 -1,0 -4,-1 -5,-2l-38 -1zm429 -3934l-8 102 -413 -201 -9 -350c28,-18 33,-10 82,-18l5 -80 320 2c16,19 13,-13 19,77 49,4 45,-6 69,18l-3 490c-69,-3 -62,23 -62,-40zm-350 3714c-9,-56 168,-673 201,-786 41,-140 95,-235 135,-364l104 -391 -17 1534 -423 7zm1517 5183l-7 327 -1774 -7 8 -155c745,-2 643,77 659,-170l854 10 260 -5zm-1627 -9476c20,-17 20,-22 75,-26 56,-3 379,25 503,11 30,94 -3,722 -4,871 -1,44 -8,1196 -27,1265 19,-19 7,-16 -5,-101 -6,-42 -9,-74 -19,-115 -18,-81 -37,-146 -57,-208 -52,-153 -83,-268 -154,-404 -28,-53 -69,-103 -90,-177l-130 -406c-13,-34 -71,-171 -72,-192 -1,30 -34,-11 104,63 50,27 87,35 142,57 106,43 165,100 293,124 12,-210 5,-440 7,-659 2,-148 13,-100 -221,-108 -107,-4 -238,-1 -345,5zm1729 -1952c-38,10 -27,14 -78,95l-1037 1760c-8,-78 -8,-40 -27,-61l-822 -15c-222,-2 -63,-179 -631,-329l-165 -115c-58,-60 -5,-35 -104,-46 28,-66 23,-100 -53,-101 -91,-2 -49,53 -64,104 -35,-28 -13,-10 -54,-16 -12,-95 -16,-104 15,-160 2,-3 4,-6 6,-9 32,-62 17,-438 17,-544 0,-10 -1,-46 -4,-54 -1,-6 -2,-8 -4,-14l-20 -38 -341 -12 18 -2060c74,-19 456,-9 565,-8l1143 2c196,5 408,-8 596,-1l-17 1562 1060 7 1 53zm-166 1621c-334,3 -239,-231 6,-189 11,58 8,142 -6,189zm721 -3869c17,35 7,937 -8,963 -22,26 -1006,10 -1164,6 -105,-2 -286,2 -386,-10l15 -984 1543 25zm-148 14690l-16 796c-60,22 -1778,4 -1801,-3l1 -85c241,-23 918,15 1334,0l16 -709 466 1zm-407 -12442c58,33 15,261 15,335 -2,212 1,899 -18,1021 -40,24 -53,39 -90,59 -55,-24 -17,-29 -107,-32 -278,-8 -287,253 -78,282 157,22 144,-23 185,-40 22,59 54,63 91,94 -13,400 -8,813 -19,1210 -10,401 -19,811 -18,1210 2,917 -28,1824 -27,2729 1,700 -35,1418 -22,2111 8,405 -10,815 -4,1222 7,378 2,806 -14,1191l-875 -7c-42,-72 -134,-122 -189,-200 -36,-50 -19,-271 -20,-378 0,-522 31,-1095 19,-1600 -8,-303 14,-497 21,-766 13,-523 -9,-1073 -9,-1600 0,-530 22,-1072 15,-1600 -7,-521 31,-1056 23,-1572 -8,-517 16,-1051 21,-1573 3,-199 -2,-169 83,-319 184,-324 414,-690 589,-1013l201 -324c1,-3 3,-7 5,-10l21 -47c22,-46 44,-81 72,-127 65,-109 144,-201 129,-256zm-1008 -1217c159,-30 1255,24 1555,6 30,151 -7,676 -8,873 0,363 -8,181 -24,296 -21,152 3,1062 -17,1291 -5,60 -76,149 -25,303 33,99 14,297 13,409 -2,92 27,135 -36,165 10,86 9,100 6,186 -4,103 22,31 25,132 3,102 -2,220 -3,324l-51 5794c-7,852 -36,1714 -35,2568 0,435 -14,840 -14,1264 -67,27 -339,4 -439,12 -18,-443 -5,-930 7,-1370 11,-459 4,-924 13,-1385 10,-449 8,-924 4,-1371l11 -1037c0,-83 52,-156 22,-288 -34,-151 -13,-335 -12,-504 1,-109 15,-67 28,-147 21,-122 -30,-199 -27,-337 3,-97 -3,-246 6,-336 5,-44 62,-141 15,-310 -18,-65 -4,-241 -5,-322 -1,-54 -7,-109 -3,-161 7,-74 61,-141 15,-329 -15,-65 -9,-455 0,-499 13,-61 29,-37 30,-139 0,-61 7,-108 -10,-163 -22,-74 -15,-460 -4,-501 5,-23 12,-17 21,-62 24,-110 -6,-193 -18,-245 -16,-67 14,-1141 23,-1168 69,-25 84,5 145,-57 123,-124 35,-329 -146,-332 -10,-121 1,-255 -3,-367 -10,-244 67,-344 16,-515 -22,-73 31,-393 -8,-543 -61,-25 -926,-19 -1073,-21l6 -1114zm-1143 13867c93,-19 15,-41 206,-34l4 303c-83,9 -194,-18 -251,25 -37,29 -50,81 -98,86 -30,3 -32,-2 -65,8 -15,66 7,50 -8,101 -6,20 -17,20 -30,71l-1291 -6 11 158c133,-13 96,2 114,-115l1148 3c106,22 -56,48 341,50 401,2 233,-22 341,-48 54,-13 190,-6 246,1 50,7 38,23 111,28 75,5 179,0 257,0l1545 13c27,-85 17,-814 18,-968 3,-325 7,-645 9,-968 8,-1295 44,-2604 39,-3898 -3,-657 16,-1317 16,-1977 0,-1297 41,-2592 41,-3898l22 -955c9,-643 -6,-1292 22,-1935 5,-139 27,-891 3,-976 -80,-28 -1240,-30 -1527,-34l-106 17c-28,166 -8,392 -15,562l-2287 3c-24,-55 -7,-1322 -2,-1489l-269 -2c-17,73 -18,293 -20,372 -5,214 -4,968 -18,1116 -56,21 -2087,16 -2295,7 -34,-158 22,-439 -10,-598 -78,-26 -1231,-28 -1503,-25 -10,0 -44,1 -53,3 -4,1 -7,2 -11,4 -4,1 -8,3 -11,4l-21 12c-40,102 -27,1716 -37,1991l-43 14c38,84 40,22 39,161 -2,487 -34,1007 -19,1487 18,547 -4,1154 -15,1699 -11,568 -8,1135 -16,1705 -9,557 2,1142 -24,1697l-3 847c0,285 5,575 0,860 -4,272 -14,563 -14,847 0,276 13,581 -1,854 -12,265 -7,552 -6,826 0,324 -41,2458 -3,2580 383,9 770,6 1154,13 75,2 649,14 694,1 66,-19 41,-21 126,-18 187,5 108,-29 226,67l514 -3c86,-26 -30,-64 256,-59 111,2 224,0 336,1 229,0 457,0 686,0 -35,-42 -7,-27 -67,-41l-539 1c-154,-1 -446,-22 -591,-4 -33,-58 11,-38 -45,-64 20,-24 99,-73 16,-119 -73,-40 -89,67 -92,87 0,3 1,8 0,12l-8 -23c-1,-3 -3,-8 -3,-12 -10,-55 -6,-119 -74,-142 -30,-10 -209,-17 -244,-14l5 -320 163 4c30,40 30,64 59,104 66,89 14,55 48,127 90,16 190,6 216,2 56,-10 33,-58 55,-94 16,-26 29,-18 55,-67 59,-110 50,-71 169,-87 21,-79 31,-607 4,-720 -73,-305 -475,-394 -695,-157l-63 80c-5,-72 1,-186 5,-261 3,-80 -13,-195 2,-264l489 7 14 -121c102,-4 212,5 314,3l229 13c4,0 7,0 11,0l44 -9c184,-23 1526,18 1811,12 2,50 -3,59 11,97 107,30 344,-1 477,7 12,70 10,489 -8,557 -3,-36 -68,-114 -97,-144 -139,-143 -664,-241 -676,421 -1,31 -33,460 -5,490 55,57 194,-50 240,106 10,33 3,79 5,119 61,14 236,9 301,-2l11 -175z"/>
 </g>
</svg>