<svg width="500" height="500" stroke="#806600" fill="#ffdf00" stroke-linecap="round" stroke-linejoin="round" stroke-width="1.6" xmlns="http://www.w3.org/2000/svg" xmlns:xlink="http://www.w3.org/1999/xlink"><g id="a"><path d="m216 215-215-53v175l215-53"/><path d="m229 271-218 54v-150l218 54" fill="#d50663"/></g><use transform="rotate(-90,250,250)" xlink:href="#a"/><use transform="rotate(180 250 250)" xlink:href="#a"/><use transform="matrix(0 1 1 0 0 0)" xlink:href="#a"/><circle cx="250" cy="250" r="98"/><circle cx="250" cy="250" r="88" fill="#001788"/><path d="m250 170c-11 15-3 20-3.9 56-.6 17-5.6 31-13 45-14-.9-15-17-1.5-17-2.9-36-5.6-59-30-72v116h27c2 17 16 26 21 32 4.7-5.8 19-15 21-32h27v-116c-24 13-27 36-30 72 13-.5 12 16-1.5 17-7.2-14-12-28-13-45-.8-36 7.3-40-3.9-56zm-40 29c11 15 11 30 13 49-4.1 2-7.2 5.8-8.4 10h-4.5zm80 0v59h-4.5c-1-5-4-8-8.4-10 2.2-19 1.5-34 13-49zm-40 54c2 7 5 14 8.8 20-3.5 1.1-6.5 3.1-8.8 5.9-2.2-2.8-5.3-4.8-8.8-5.9 3.7-6.2 6.6-13 8.8-20zm-40 13h4.5c4 8 7 11 15 12-1 3.7-1.6 7.7-1.6 12h-18zm76 0h4.5v24h-18c0-4-1-8-1.6-12 7.6-1.7 12-4 15-12zm-48 14c5 1 9 5 8.6 9.9h-10c0-3 1-7 1.4-9.9zm25 0c1 3 1 6 1.4 9.9h-10c0-5 4-9 8.6-9.9zm-26 18h9.1v17c-4-5-8-10-9.1-17zm17 0h9.1c-1 6-5 12-9.1 17z"/></svg>
